<?xml version="1.0" encoding="UTF-8" standalone="no"?>
<!-- Created with Inkscape (http://www.inkscape.org/) -->

<svg
   xmlns:dc="http://purl.org/dc/elements/1.1/"
   xmlns:cc="http://creativecommons.org/ns#"
   xmlns:rdf="http://www.w3.org/1999/02/22-rdf-syntax-ns#"
   xmlns:svg="http://www.w3.org/2000/svg"
   xmlns="http://www.w3.org/2000/svg"
   xmlns:sodipodi="http://sodipodi.sourceforge.net/DTD/sodipodi-0.dtd"
   xmlns:inkscape="http://www.inkscape.org/namespaces/inkscape"
   width="72.512444mm"
   height="70.309845mm"
   viewBox="0 0 256.93385 249.12937"
   id="svg2"
   version="1.1"
   inkscape:version="0.91 r13725"
   sodipodi:docname="lily-y.svg">
  <defs
     id="defs4" />
  <sodipodi:namedview
     id="base"
     pagecolor="#ffffff"
     bordercolor="#666666"
     borderopacity="1.0"
     inkscape:pageopacity="0.0"
     inkscape:pageshadow="2"
     inkscape:zoom="1.4142136"
     inkscape:cx="-21.355954"
     inkscape:cy="161.16962"
     inkscape:document-units="px"
     inkscape:current-layer="layer1"
     showgrid="false"
     fit-margin-top="0"
     fit-margin-left="0"
     fit-margin-right="0"
     fit-margin-bottom="0"
     inkscape:window-width="1920"
     inkscape:window-height="1011"
     inkscape:window-x="-9"
     inkscape:window-y="-9"
     inkscape:window-maximized="1" />
  <metadata
     id="metadata7">
    <rdf:RDF>
      <cc:Work
         rdf:about="">
        <dc:format>image/svg+xml</dc:format>
        <dc:type
           rdf:resource="http://purl.org/dc/dcmitype/StillImage" />
        <dc:title></dc:title>
      </cc:Work>
    </rdf:RDF>
  </metadata>
  <g
     inkscape:label="Layer 1"
     inkscape:groupmode="layer"
     id="layer1"
     transform="translate(-134.2315,-533.77774)">
    <path
       style="fill:#ff9955"
       d=""
       id="path3443"
       inkscape:connector-curvature="0"
       transform="translate(-1084.8769,371.99117)" />
    <path
       style="fill:#ffccaa"
       d=""
       id="path3445"
       inkscape:connector-curvature="0"
       transform="translate(-1084.8769,371.99117)" />
    <g
       id="g3493"
       transform="translate(420.38645,33.649947)">
      <path
         style="fill:#fcacc8"
         d="m -267.24637,558.14194 c -1.1169,-2.08695 -0.57193,-8.31686 0.94177,-10.76609 0.60302,-0.97571 1.57247,-0.53103 3.88598,1.78248 1.69538,1.69538 4.4793,3.36186 6.18648,3.7033 3.73471,0.74694 3.48272,2.10237 -0.94914,5.10517 -4.23843,2.87175 -8.58146,2.94732 -10.06509,0.17514 z m 23.03642,-1.58167 -3.1571,-2.65652 3.32323,-1.39732 c 1.82778,-0.76852 4.33191,-2.34491 5.56472,-3.50307 l 2.24148,-2.10576 1.50573,3.6037 c 3.24762,7.77267 -2.82667,11.65575 -9.47806,6.05897 z m 9.7812,-16.56376 c 0.21964,-1.88133 -0.32575,-5.15598 -1.21197,-7.277 -1.88929,-4.5217 -1.11786,-5.46326 4.49586,-5.4874 10.43712,-0.0449 10.32746,13.95647 -0.12233,15.61861 -3.55322,0.56517 -3.56003,0.55901 -3.16156,-2.85421 z m -37.75699,-0.89575 c -6.09869,-2.4333 -7.41268,-5.84445 -3.94798,-10.2491 1.57384,-2.00081 2.95751,-2.63118 5.75,-2.61955 5.93726,0.0247 6.7707,1.04467 4.82574,5.90561 -0.90658,2.26575 -1.64832,5.01045 -1.64832,6.09932 0,2.16657 -1.19466,2.3738 -4.97944,0.86372 z m 12.21994,-19.03508 c 0.83717,-8.71255 6.41178,-13.47819 12.71301,-10.86814 3.95364,1.63765 6.04649,5.61648 6.04649,11.49528 l 0,4.57534 -2.95034,-1.52568 c -3.60014,-1.8617 -7.31176,-1.87916 -12.41953,-0.0584 l -3.86986,1.37948 0.48023,-4.99787 z"
         id="path3515"
         inkscape:connector-curvature="0" />
      <path
         style="fill:#fb9dae"
         d="m -267.6496,558.99429 c -0.85618,-1.22237 -1.54075,-2.68488 -1.52126,-3.25 0.0195,-0.56512 0.6562,0.0975 1.41492,1.47251 0.75872,1.375 2.65527,2.78426 4.21456,3.13168 l 2.83508,0.63169 -2.6933,0.11831 c -1.74194,0.0765 -3.24317,-0.66674 -4.25,-2.10419 z m 7.4433,0.8295 c 0,-0.21616 0.69837,-0.661 1.55194,-0.98855 0.88992,-0.34149 1.29132,-0.17385 0.94098,0.39301 -0.58726,0.95021 -2.49292,1.40545 -2.49292,0.59554 z m 20,0.01 c 0,-0.21088 1.11138,-0.59588 2.46974,-0.85554 1.35835,-0.25967 2.2318,-0.0871 1.94098,0.38342 -0.51208,0.82855 -4.41072,1.24586 -4.41072,0.47211 z m -16,-1.99415 c 0,-0.20765 0.7875,-0.99515 1.75,-1.75 1.58606,-1.24387 1.62143,-1.2085 0.37756,0.37756 -1.30637,1.66575 -2.12756,2.19548 -2.12756,1.37244 z m 9.92431,-2.37244 -2.42431,-2.75 2.75,2.42431 c 1.5125,1.33338 2.75,2.57088 2.75,2.75 0,0.78428 -0.8098,0.14598 -3.07569,-2.42431 z m -16.51932,-6.5 -1.90499,-2.25 2.25,1.90499 c 2.11445,1.79022 2.70524,2.59501 1.90499,2.59501 -0.18976,0 -1.20226,-1.0125 -2.25,-2.25 z m 23.49037,0.0308 c 2.09423,-2.37735 4.10464,-2.89414 4.10464,-1.05514 0,0.33421 -0.30412,0.30354 -0.67581,-0.0682 -0.3717,-0.37169 -1.8342,0.34081 -3.25,1.58334 l -2.57419,2.25914 2.39536,-2.71918 z m -26.89536,-3.83984 c 0,-0.58246 0.45,-0.7809 1,-0.44098 0.55,0.33992 1,0.81648 1,1.05902 0,0.24254 -0.45,0.44098 -1,0.44098 -0.55,0 -1,-0.47656 -1,-1.05902 z m 39,-3.31854 c 0,-0.20765 0.7875,-0.99515 1.75,-1.75 1.58606,-1.24387 1.62143,-1.2085 0.37756,0.37756 -1.30637,1.66575 -2.12756,2.19548 -2.12756,1.37244 z m -39.80505,-4.12244 c 0.0204,-1.65 0.2445,-2.20394 0.49804,-1.23097 0.25354,0.97297 0.23687,2.32297 -0.0371,3 -0.27393,0.67703 -0.48137,-0.11903 -0.46099,-1.76903 z m -9.78996,-0.75 -1.90499,-2.25 2.5,1.98934 c 1.375,1.09414 2.6875,2.10664 2.91667,2.25 0.22916,0.14336 -0.0386,0.26066 -0.59502,0.26066 -0.55642,0 -1.86892,-1.0125 -2.91666,-2.25 z m 11.80558,-9.35086 c -0.70918,-0.76953 -0.84824,-1.39914 -0.30901,-1.39914 1.03844,0 2.54172,1.90221 1.94858,2.46567 -0.19258,0.18294 -0.93038,-0.297 -1.63957,-1.06653 z m -14.21057,0.2233 c 0,-0.20765 0.7875,-0.99515 1.75,-1.75 1.58606,-1.24387 1.62143,-1.2085 0.37756,0.37756 -1.30637,1.66575 -2.12756,2.19548 -2.12756,1.37244 z m 46.75,-1.28472 c 0.6875,-0.27741 1.8125,-0.27741 2.5,0 0.6875,0.27741 0.125,0.50438 -1.25,0.50438 -1.375,0 -1.9375,-0.22697 -1.25,-0.50438 z m -39.5,-1.02705 c 0.9625,-0.25152 2.5375,-0.25152 3.5,0 0.9625,0.25153 0.175,0.45733 -1.75,0.45733 -1.925,0 -2.7125,-0.2058 -1.75,-0.45733 z m 31.02236,-5.31067 c 0,-2.475 0.19502,-3.4875 0.43337,-2.25 0.23836,1.2375 0.23836,3.2625 0,4.5 -0.23835,1.2375 -0.43337,0.225 -0.43337,-2.25 z m -1.70807,-6.70687 c -0.54268,-1.4252 -0.42782,-1.54006 0.5598,-0.5598 0.68342,0.67834 0.99067,1.48524 0.68278,1.79313 -0.30788,0.30789 -0.86705,-0.24711 -1.24258,-1.23333 z m -16.56429,0.0285 c 0,-0.55642 1.0125,-1.86892 2.25,-2.91666 l 2.25,-1.90499 -1.98934,2.5 c -1.09414,1.375 -2.10664,2.6875 -2.25,2.91667 -0.14336,0.22916 -0.26066,-0.0386 -0.26066,-0.59502 z"
         id="path3513"
         inkscape:connector-curvature="0" />
      <path
         style="fill:#e0d770"
         d="m -169.9563,748.52747 c 0.9625,-0.25152 2.5375,-0.25152 3.5,0 0.9625,0.25153 0.175,0.45733 -1.75,0.45733 -1.925,0 -2.7125,-0.2058 -1.75,-0.45733 z m 21,0 c 0.9625,-0.25152 2.5375,-0.25152 3.5,0 0.9625,0.25153 0.175,0.45733 -1.75,0.45733 -1.925,0 -2.7125,-0.2058 -1.75,-0.45733 z m -28.4375,-0.99378 c 0.72187,-0.28887 1.58437,-0.25335 1.91667,0.0789 0.33229,0.33229 -0.25834,0.56864 -1.3125,0.52522 -1.16495,-0.048 -1.4019,-0.28494 -0.60417,-0.60416 z m 38,0 c 0.72187,-0.28887 1.58437,-0.25335 1.91667,0.0789 0.33229,0.33229 -0.25834,0.56864 -1.3125,0.52522 -1.16495,-0.048 -1.4019,-0.28494 -0.60417,-0.60416 z m -44,-1 c 0.72187,-0.28887 1.58437,-0.25335 1.91667,0.0789 0.33229,0.33229 -0.25834,0.56864 -1.3125,0.52522 -1.16495,-0.048 -1.4019,-0.28494 -0.60417,-0.60416 z m -25.8125,-7.31689 c -0.825,-0.53316 -1.05,-0.96937 -0.5,-0.96937 0.55,0 1.675,0.43621 2.5,0.96937 0.825,0.53316 1.05,0.96937 0.5,0.96937 -0.55,0 -1.675,-0.43621 -2.5,-0.96937 z m 134,-19.37756 c 0,-0.20765 0.7875,-0.99515 1.75,-1.75 1.58606,-1.24387 1.62143,-1.2085 0.37756,0.37756 -1.30637,1.66575 -2.12756,2.19548 -2.12756,1.37244 z m -175.56291,-8.87244 -2.93709,-3.25 3.25,2.93709 c 3.02945,2.73778 3.70965,3.56291 2.93709,3.56291 -0.1721,0 -1.6346,-1.4625 -3.25,-3.25 z m 219.64186,-68.33333 c 0.048,-1.16495 0.28494,-1.4019 0.60416,-0.60417 0.28887,0.72187 0.25335,1.58437 -0.0789,1.91667 -0.3323,0.33229 -0.56864,-0.25834 -0.52522,-1.3125 z m 1.116,-7.91667 c 0.0204,-1.65 0.2445,-2.20394 0.49804,-1.23097 0.25354,0.97297 0.23687,2.32297 -0.0371,3 -0.27393,0.67703 -0.48137,-0.11903 -0.46099,-1.76903 z m 0,-20 c 0.0204,-1.65 0.2445,-2.20394 0.49804,-1.23097 0.25354,0.97297 0.23687,2.32297 -0.0371,3 -0.27393,0.67703 -0.48137,-0.11903 -0.46099,-1.76903 z m -1.116,-8.08333 c 0.048,-1.16495 0.28494,-1.4019 0.60416,-0.60417 0.28887,0.72187 0.25335,1.58437 -0.0789,1.91667 -0.3323,0.33229 -0.56864,-0.25834 -0.52522,-1.3125 z m -254,-2 c 0.048,-1.16495 0.28494,-1.4019 0.60416,-0.60417 0.28887,0.72187 0.25335,1.58437 -0.0789,1.91667 -0.33229,0.33229 -0.56864,-0.25834 -0.52522,-1.3125 z m 252,-9 c 0.048,-1.16495 0.28494,-1.4019 0.60416,-0.60417 0.28887,0.72187 0.25335,1.58437 -0.0789,1.91667 -0.3323,0.33229 -0.56864,-0.25834 -0.52522,-1.3125 z m -102.884,-33.91667 c 0.0204,-1.65 0.2445,-2.20394 0.49804,-1.23097 0.25354,0.97297 0.23687,2.32297 -0.0371,3 -0.27388,0.67703 -0.48132,-0.11903 -0.46094,-1.76903 z m 77.67749,-15.25 c -1.24387,-1.58606 -1.2085,-1.62143 0.37756,-0.37756 1.66575,1.30637 2.19548,2.12756 1.37244,2.12756 -0.20765,0 -0.99515,-0.7875 -1.75,-1.75 z m -79.64044,-11.25 c 0,-1.925 0.2058,-2.7125 0.45733,-1.75 0.25152,0.9625 0.25152,2.5375 0,3.5 -0.25153,0.9625 -0.45733,0.175 -0.45733,-1.75 z m 63.64044,-4.75 c -1.24387,-1.58606 -1.2085,-1.62143 0.37756,-0.37756 1.66575,1.30637 2.19548,2.12756 1.37244,2.12756 -0.20765,0 -0.99515,-0.7875 -1.75,-1.75 z m -64.67749,-6.75 c 0.0204,-1.65 0.2445,-2.20394 0.49804,-1.23097 0.25354,0.97297 0.23687,2.32297 -0.0371,3 -0.27388,0.67703 -0.48132,-0.11903 -0.46094,-1.76903 z m -0.94277,-15 c 0.0111,-2.2 0.21589,-2.98225 0.45508,-1.73834 0.23919,1.24391 0.23011,3.04391 -0.0202,4 -0.25027,0.95609 -0.44598,-0.0617 -0.43488,-2.26166 z m 27.74782,2.55902 c 0,-0.51754 0.44485,-1.21592 0.98855,-1.55194 0.56686,-0.35034 0.7345,0.0511 0.39301,0.94098 -0.66479,1.73242 -1.38156,2.04939 -1.38156,0.61096 z m -65.25,-9.7213 c 0.6875,-0.27741 1.8125,-0.27741 2.5,0 0.6875,0.27741 0.125,0.50439 -1.25,0.50439 -1.375,0 -1.9375,-0.22698 -1.25,-0.50439 z m 7.5,-1.02705 c 0.9625,-0.25152 2.5375,-0.25152 3.5,0 0.9625,0.25153 0.175,0.45733 -1.75,0.45733 -1.925,0 -2.7125,-0.2058 -1.75,-0.45733 z m 21,0 c 0.9625,-0.25152 2.5375,-0.25152 3.5,0 0.9625,0.25153 0.175,0.45733 -1.75,0.45733 -1.925,0 -2.7125,-0.2058 -1.75,-0.45733 z"
         id="path3511"
         inkscape:connector-curvature="0" />
      <path
         style="fill:#d2d663"
         d="m -166.28963,746.84593 c -0.22917,-0.20398 -3.56667,-0.64962 -7.41667,-0.99031 -29.26614,-2.58984 -60.26896,-18.89774 -80.77918,-42.49095 -7.3625,-8.46919 -6.74654,-7.65422 -11.63298,-15.39136 -21.50234,-34.04655 -23.93873,-78.75209 -6.25406,-114.75651 l 4.66622,-9.5 4.5,-0.54588 c 5.22668,-0.63403 7.57858,-1.78534 10.89897,-5.33531 l 2.39896,-2.56484 3.0286,2.96101 c 5.34836,5.22902 13.58336,4.98243 15.65591,-0.46881 0.64284,-1.69077 0.51997,-3.88167 -0.3866,-6.89399 l -1.3289,-4.41558 3.79284,-1.13636 c 10.2498,-3.07092 12.03204,-15.39868 2.90831,-20.11674 l -3.29397,-1.70338 6.85278,-3.83229 c 16.83849,-9.41662 33.65681,-14.67052 52.9731,-16.54834 9.14682,-0.88921 26.05699,-0.67584 27.07445,0.34162 0.27167,0.27167 1.85396,17.39703 2.88816,31.25889 2.68926,36.04563 3.11489,39.5 4.867,39.5 0.68145,0 1.97252,-1.9125 2.86906,-4.25 0.89654,-2.3375 5.74592,-15.05 10.7764,-28.25 10.74063,-28.18344 11.28691,-29.5 12.24053,-29.5 1.78005,0 12.93941,5.51606 19.7844,9.7794 30.21167,18.8171 50.3548,48.69476 56.44335,83.7206 2.12741,12.23842 1.51187,32.88823 -1.33459,44.77237 -6.80145,28.39646 -21.02067,50.73886 -44.04542,69.20771 -21.54448,17.28149 -51.43373,27.47788 -80.64667,27.51172 -3.89584,0.005 -7.27084,-0.15869 -7.5,-0.36267 z M -286.04841,633.2168 c 0,-1.375 0.22698,-1.9375 0.50439,-1.25 0.27741,0.6875 0.27741,1.8125 0,2.5 -0.27741,0.6875 -0.50439,0.125 -0.50439,-1.25 z m 0,-18 c 0,-1.375 0.22698,-1.9375 0.50439,-1.25 0.27741,0.6875 0.27741,1.8125 0,2.5 -0.27741,0.6875 -0.50439,0.125 -0.50439,-1.25 z m 149.03706,-64.5 c 0.0204,-1.65 0.2445,-2.20394 0.49804,-1.23097 0.25354,0.97297 0.23687,2.32297 -0.0371,3 -0.27388,0.67703 -0.48132,-0.11903 -0.46094,-1.76903 z m -3.03706,-36.5 c 0,-1.375 0.22698,-1.9375 0.50439,-1.25 0.27741,0.6875 0.27741,1.8125 0,2.5 -0.27741,0.6875 -0.50439,0.125 -0.50439,-1.25 z"
         id="path3509"
         inkscape:connector-curvature="0" />
      <path
         style="fill:#d1ce61"
         d="m -164.41242,748.67735 c -0.47945,-0.47945 -9.40273,-1.46572 -14.04388,-1.55223 -0.9625,-0.0179 -1.75,-0.39959 -1.75,-0.84811 0,-0.44852 1.4625,-0.63916 3.25,-0.42365 8.61522,1.03872 14.78828,1.44319 20.5,1.34319 3.82221,-0.0669 6.25,0.30421 6.25,0.95541 0,1.08451 -13.16029,1.57122 -14.20612,0.52539 z m 16.72398,-1.43165 c -0.35007,-0.56643 0.87545,-0.91562 2.94099,-0.83797 1.94763,0.0732 3.54115,0.51022 3.54115,0.9711 0,1.17111 -5.74904,1.05304 -6.48214,-0.13313 z m 8.48214,-1.0289 c 1.97586,-1.2769 5.28917,-1.2769 4.5,0 -0.33992,0.55 -1.82898,0.99311 -3.30902,0.98469 -2.10476,-0.012 -2.36421,-0.22649 -1.19098,-0.98469 z m -46.43393,-0.8931 c -0.26032,-0.4212 0.39665,-0.70174 1.45994,-0.6234 2.65835,0.19584 3.32272,1.06462 0.95077,1.2433 -1.06557,0.0803 -2.15039,-0.19869 -2.41071,-0.6199 z m 52.71287,0.34514 c 0.42842,-0.46379 1.32842,-0.93676 2,-1.05103 0.67158,-0.11427 1.96304,-0.50693 2.86991,-0.87256 0.90687,-0.36564 1.92909,-0.21135 2.27161,0.34286 0.34252,0.5542 -0.17446,0.99608 -1.14885,0.98195 -0.97438,-0.0141 -2.89661,0.30454 -4.27161,0.70817 -1.375,0.40363 -2.14948,0.3544 -1.72106,-0.10939 z m -59.27894,-1.34776 c -2.08135,-0.57975 -2.21231,-0.80693 -0.78202,-1.35665 0.94488,-0.36315 1.97179,-0.24959 2.28202,0.25237 0.31023,0.50196 1.22464,0.65916 2.03203,0.34934 0.80738,-0.30983 1.46797,-0.0652 1.46797,0.54367 0,1.21616 -1.20896,1.26724 -5,0.21127 z m 68.43711,-1.20605 c -0.52771,-0.85384 -0.26879,-1.04762 0.83424,-0.62435 0.87969,0.33757 1.79726,0.0765 2.03904,-0.58006 0.33578,-0.91184 0.75257,-0.89857 1.76461,0.0562 0.84603,0.79815 0.92078,1.25 0.20679,1.25 -0.61502,0 -1.7845,0.25568 -2.59885,0.56817 -0.81435,0.3125 -1.82498,0.011 -2.24583,-0.66994 z m -72.93711,-0.89823 c 0.33992,-0.55 0.81648,-1 1.05902,-1 0.24254,0 0.44098,0.45 0.44098,1 0,0.55 -0.47656,1 -1.05902,1 -0.58246,0 -0.7809,-0.45 -0.44098,-1 z m -3.5,-1 c 0,-0.55 0.45,-1 1,-1 0.55,0 1,0.45 1,1 0,0.55 -0.45,1 -1,1 -0.55,0 -1,-0.45 -1,-1 z m 83,0 c 0,-0.55 0.45,-1 1,-1 0.55,0 1,0.45 1,1 0,0.55 -0.45,1 -1,1 -0.55,0 -1,-0.45 -1,-1 z m -85.5,-1 c 0.33992,-0.55 0.81648,-1 1.05902,-1 0.24254,0 0.44098,0.45 0.44098,1 0,0.55 -0.47656,1 -1.05902,1 -0.58246,0 -0.7809,-0.45 -0.44098,-1 z m 88.5,-0.059 c 0,-0.58246 0.45,-0.7809 1,-0.44098 0.55,0.33992 1,0.0933 1,-0.54797 0,-0.6413 0.675,-0.90699 1.5,-0.5904 0.825,0.31658 1.5,0.0647 1.5,-0.55968 0,-0.62441 0.2961,-0.83919 0.65799,-0.47729 0.3619,0.36189 1.2619,0.15679 2,-0.45578 0.84122,-0.69815 1.34201,-0.73543 1.34201,-0.0999 0,0.55762 -1.80911,1.73772 -4.02024,2.62244 -4.75264,1.90163 -4.97976,1.9267 -4.97976,0.54956 z m -92.85676,-0.83129 c -0.74622,-0.47283 -0.97122,-1.09371 -0.5,-1.37973 0.47122,-0.28602 1.437,0.10773 2.14619,0.875 1.42889,1.54593 0.46395,1.84178 -1.64619,0.50473 z m -6.01058,-2.49311 c -1.89038,-1.0481 -2.05816,-1.43119 -0.83276,-1.90142 0.88532,-0.33973 1.78471,0.0629 2.12577,0.95174 0.34285,0.89346 1.23956,1.29181 2.1347,0.94831 0.88328,-0.33895 1.28217,-0.16945 0.93255,0.39624 -0.7852,1.27049 -1.46813,1.20864 -4.36026,-0.39487 z m 109.93263,-1.19527 c 1.32028,-1.59084 2.93471,-1.88678 2.93471,-0.53796 0,0.48585 -0.92572,1.12545 -2.05715,1.42132 -1.68797,0.44142 -1.84546,0.28289 -0.87756,-0.88336 z M -217.2063,734.2168 c 0,-0.61492 -0.41891,-0.85914 -0.9309,-0.54271 -0.512,0.31644 -1.19902,0.14152 -1.52671,-0.3887 -0.33714,-0.5455 0.34284,-0.78328 1.56621,-0.54768 2.73276,0.52629 3.31293,1.10054 1.95793,1.93797 -0.58659,0.36254 -1.06653,0.15604 -1.06653,-0.45888 z m 118.65792,-0.55093 c 0.60696,-1.58173 2.34208,-1.99368 2.34208,-0.55606 0,0.49116 -0.65208,1.14324 -1.44907,1.44907 -0.96852,0.37166 -1.26467,0.0755 -0.89301,-0.89301 z m -126.30204,-3.68227 c -0.30588,-0.49492 -0.28609,-1.16992 0.044,-1.5 0.33007,-0.33007 0.60013,-0.0486 0.60013,0.62555 0,0.67413 0.41891,0.96679 0.9309,0.65036 0.512,-0.31644 1.1672,-0.19299 1.45601,0.27431 0.28881,0.46731 -0.14989,0.84965 -0.97489,0.84965 -0.825,0 -1.75026,-0.40494 -2.05614,-0.89987 z m 132.64412,0.26083 c 0,-1.35555 1.7771,-2.19731 2.42516,-1.14873 0.30984,0.50134 -0.10906,1.16956 -0.9309,1.48493 -0.82184,0.31537 -1.49426,0.16408 -1.49426,-0.3362 z m -136.2619,-2.43239 c -0.825,-0.825 -1.74212,-1.25789 -2.03803,-0.96197 -0.29592,0.29591 -1.04707,-0.41312 -1.66922,-1.57563 -0.62216,-1.16251 -1.52752,-1.86871 -2.01192,-1.56934 -0.48441,0.29938 -1.16338,0.087 -1.50885,-0.47199 -1.67837,-2.71565 2.97372,-0.4133 9.40659,4.65538 0.22916,0.18057 0.17024,0.57474 -0.13096,0.87593 -0.30119,0.30119 -1.22261,-0.12738 -2.04761,-0.95238 z m 140.2619,-0.59524 c 0,-0.55 0.45,-1.05625 1,-1.125 0.55,-0.0687 1.48628,-0.18125 2.08061,-0.25 0.59434,-0.0687 1.71934,-0.99851 2.5,-2.06613 0.78067,-1.06762 1.41939,-1.56943 1.41939,-1.11514 0,0.45429 0.93266,-0.3597 2.07258,-1.80887 1.13992,-1.44917 2.71492,-2.63486 3.5,-2.63486 0.78508,0 1.42742,-0.45 1.42742,-1 0,-0.55 0.70156,-1 1.55902,-1 0.85746,0 1.2809,-0.45 0.94098,-1 -0.33992,-0.55 -0.14148,-1 0.44098,-1 0.58246,0 1.05902,0.36537 1.05902,0.81194 0,0.91878 -6.07937,5.65299 -7.28647,5.67423 -0.43257,0.008 -1.13537,0.57834 -1.56178,1.2683 -0.953,1.54198 -7.23845,6.24553 -8.34603,6.24553 -0.44315,0 -0.80572,-0.45 -0.80572,-1 z m -152.15838,-7.69083 c -1.7583,-2.11863 -0.5597,-2.35943 2.02809,-0.40744 1.76507,1.33139 1.94174,1.76494 0.71919,1.76494 -0.89136,0 -2.12763,-0.61088 -2.74728,-1.3575 z m -5.25177,-4.20989 c -1.29264,-1.42834 -1.41702,-2.08806 -0.50048,-2.65451 0.73136,-0.45201 0.96212,-0.33709 0.57639,0.28703 -0.3538,0.57245 0.25167,1.27485 1.34549,1.56089 1.09381,0.28604 1.98875,1.0122 1.98875,1.61369 0,1.66367 -1.49417,1.31003 -3.41015,-0.8071 z m 177.16871,-2.19129 c 0.67325,-0.8756 0.89049,-1.96025 0.48276,-2.41032 -0.40772,-0.45008 -0.21288,-0.51566 0.433,-0.14575 0.6693,0.38333 1.372,-0.0853 1.634,-1.08968 0.37009,-1.41879 0.48229,-1.45138 0.57568,-0.16723 0.0638,0.87726 -0.88875,2.45226 -2.11677,3.5 -1.36805,1.16722 -1.75869,1.28843 -1.00867,0.31298 z m -183.76742,-4.41713 c -3.07591,-3.17354 -5.08734,-7.28638 -2.90335,-5.93661 0.50171,0.31008 0.91221,1.21223 0.91221,2.00477 0,0.79254 0.75,1.44098 1.66667,1.44098 0.91666,0 1.37485,0.29182 1.01819,0.64848 -0.35667,0.35666 0.31548,1.48452 1.49365,2.50634 1.17818,1.02183 1.92673,2.07327 1.66346,2.33654 -0.26327,0.26327 -1.99614,-1.08695 -3.85083,-3.0005 z m 188.20244,-0.57159 c 0.16853,-0.7806 1.54392,-2.66068 3.05642,-4.17797 1.5125,-1.51728 2.75,-3.14968 2.75,-3.62755 0,-0.47787 0.675,-1.42906 1.5,-2.11375 1.2236,-1.0155 1.5,-0.9593 1.5,0.30498 0,0.85242 -1.10974,2.42278 -2.46609,3.48968 -1.35635,1.06691 -2.14385,2.29672 -1.75,2.73291 0.39385,0.43619 0.15359,0.46938 -0.53391,0.0737 -0.75374,-0.43376 -1.25,-0.14901 -1.25,0.71723 0,0.79011 -0.70039,2.01784 -1.55642,2.72829 -1.28691,1.06804 -1.50337,1.04595 -1.25,-0.12756 z m -195.32113,-7.66927 c -1.24388,-1.58606 -1.20851,-1.62143 0.37755,-0.37756 0.9625,0.75485 1.75,1.54235 1.75,1.75 0,0.82304 -0.82119,0.29331 -2.12755,-1.37244 z m -2.87245,-3.75 c -1.01957,-1.22851 -0.95123,-1.5 0.37755,-1.5 0.89235,0 1.62245,0.675 1.62245,1.5 0,0.825 -0.1699,1.5 -0.37755,1.5 -0.20766,0 -0.93776,-0.675 -1.62245,-1.5 z m 207.61115,-0.32016 c -0.32402,-0.52428 0.0448,-1.47933 0.81957,-2.12234 1.11142,-0.9224 1.3614,-0.84691 1.1846,0.35775 -0.30298,2.0643 -1.28472,2.92868 -2.00417,1.76459 z m -212.06844,-6.11074 c -0.31644,-0.512 -0.11799,-1.21356 0.44098,-1.55902 0.55897,-0.34546 1.01631,0.0734 1.01631,0.9309 0,1.75653 -0.60005,2.01516 -1.45729,0.62812 z m 216.21352,0.26654 c 0.69093,-0.27855 0.9589,-0.98755 0.59549,-1.57556 -0.39382,-0.63721 -0.18776,-0.77678 0.51008,-0.34549 1.37672,0.85086 0.55006,2.62054 -1.17082,2.50646 -0.85244,-0.0565 -0.83389,-0.22291 0.0652,-0.58541 z m -219.71727,-6.5242 c -2.29349,-2.46176 -2.60237,-3.81144 -0.87229,-3.81144 0.64166,0 0.86255,0.30412 0.49085,0.67581 -0.3717,0.3717 0.30675,1.7217 1.50765,3 1.2009,1.27831 1.89755,2.32419 1.5481,2.32419 -0.34945,0 -1.55289,-0.98485 -2.67431,-2.18856 z m 221.96104,1.79555 c 0,-0.21616 0.69837,-0.661 1.55194,-0.98855 0.88992,-0.34149 1.29132,-0.17385 0.94098,0.39301 -0.58726,0.95021 -2.49292,1.40545 -2.49292,0.59554 z m 3.76304,-5.21137 c -0.29424,-0.49259 0.27108,-2.38412 1.25626,-4.2034 2.3442,-4.32886 3.32161,-2.71904 1.03447,1.7038 -0.96566,1.86737 -1.99648,2.99219 -2.29073,2.4996 z m -229.09637,-2.06229 c -1.01651,-1.0165 -0.79509,-2.33333 0.39235,-2.33333 0.58246,0 0.80465,0.41157 0.49377,0.91459 -0.31089,0.50302 5e-5,1.1425 0.69098,1.42105 0.69469,0.28007 0.77197,0.54176 0.1729,0.58541 -0.59584,0.0434 -1.38334,-0.22105 -1.75,-0.58772 z m -1.26216,-4.17882 c 0.39244,-0.63498 0.2693,-1.15451 -0.27364,-1.15451 -0.54295,0 -1.9195,-2.49188 -3.05902,-5.53751 -2.38929,-6.38596 -2.40199,-6.46249 -1.07185,-6.46249 0.55,0 0.9044,0.3375 0.78755,0.75 -0.11685,0.4125 0.28877,1.65 0.90139,2.75 0.61261,1.1 1.14909,2.34222 1.19219,2.76048 0.0431,0.41826 0.76081,2.08022 1.59494,3.69325 1.11187,2.15012 1.20948,3.12258 0.36576,3.64403 -0.71172,0.43986 -0.87859,0.27074 -0.43732,-0.44325 z M -40.7063,672.2168 c -0.33992,-0.55 -0.14148,-1 0.44098,-1 0.58246,0 1.05902,0.45 1.05902,1 0,0.55 -0.19844,1 -0.44098,1 -0.24254,0 -0.7191,-0.45 -1.05902,-1 z m 0.51531,-2.75 c 0.028,-1.36867 1.86631,-3.70172 2.45386,-3.11417 0.78775,0.78775 -0.46709,3.86417 -1.57616,3.86417 -0.49115,0 -0.88612,-0.3375 -0.8777,-0.75 z m 1.98469,-5.30902 c 0,-0.58246 0.45,-0.7809 1,-0.44098 0.55,0.33992 1,0.81648 1,1.05902 0,0.24254 -0.45,0.44098 -1,0.44098 -0.55,0 -1,-0.47656 -1,-1.05902 z m 1.01518,-2.19098 c 0.12466,-2.05298 2.81016,-8.84162 3.22933,-8.16339 0.82261,1.331 -0.30278,6.41339 -1.4201,6.41339 -0.51835,0 -0.66433,0.45 -0.32441,1 0.33992,0.55 0.14148,1 -0.44098,1 -0.58246,0 -1.05219,-0.1125 -1.04384,-0.25 z m -244.25111,-4.20383 c -0.27272,-1.42665 -0.15736,-2.8031 0.25635,-3.05879 1.0784,-0.66649 2.07991,3.81229 1.07679,4.81541 -0.4605,0.4605 -1.06041,-0.32998 -1.33314,-1.75662 z m -2.15482,-8.7499 c -0.34884,-1.7442 -0.20981,-3.59571 0.30895,-4.11447 0.59093,-0.59093 0.83084,-0.24079 0.64236,0.9375 -0.16547,1.03439 0.0919,2.64089 0.572,3.57001 0.49938,0.96649 0.49591,1.92227 -0.008,2.23377 -0.48452,0.29945 -1.16636,-0.88261 -1.5152,-2.62681 z m 250.08767,1.8106 c -0.4092,-1.04122 -0.5084,-2.12872 -0.22046,-2.41666 0.91206,-0.91206 1.71456,0.58256 1.33239,2.48152 -0.35024,1.74033 -0.40373,1.73721 -1.11193,-0.0649 z m 0.76196,-4.6734 c -0.36253,-0.58659 -0.44468,-1.281 -0.18255,-1.54313 0.26212,-0.26213 0.74306,0.21781 1.06875,1.06653 0.67618,1.76211 0.0999,2.07206 -0.8862,0.4766 z m -252.29221,-7.50929 c 0,-2.52497 0.2001,-4.39074 0.44467,-4.14617 0.94111,0.9411 1.31776,7.64777 0.45931,8.17832 -0.49719,0.30729 -0.90398,-1.50718 -0.90398,-4.03215 z m 252.83333,-1.4832 c 0,-0.58246 0.45,-0.7809 1,-0.44098 0.55,0.33992 1,0.81648 1,1.05902 0,0.24254 -0.45,0.44098 -1,0.44098 -0.55,0 -1,-0.47656 -1,-1.05902 z m 0.54271,-2.87188 c -0.31644,-0.512 -0.19299,-1.1672 0.27431,-1.45601 0.46731,-0.28881 0.84965,0.13009 0.84965,0.9309 0,1.68617 -0.31534,1.83349 -1.12396,0.52511 z m -254.15419,-3.65727 c -1.71146,-6.81896 3.53077,-42.89254 5.89027,-40.53304 0.52082,0.52082 0.57996,1.54074 0.13142,2.2665 -0.44854,0.72575 -0.90898,2.00246 -1.02319,2.83713 -0.11421,0.83467 -0.9499,5.79258 -1.85709,11.01758 -0.90718,5.225 -1.70844,13.4375 -1.78058,18.25 -0.0721,4.8125 -0.26167,8.75 -0.4212,8.75 -0.15952,0 -0.58236,-1.16467 -0.93963,-2.58817 z m 255.24177,-1.66183 c -0.90257,-3.3679 -0.72478,-8.0564 0.36971,-9.75 0.67888,-1.05049 0.97396,0.52277 0.98469,5.25 0.016,7.06654 -0.34507,8.2663 -1.3544,4.5 z m -1.63029,-18.75 c 0,-1.1 0.35424,-2 0.7872,-2 0.43295,0 0.85499,0.9 0.93785,2 0.0829,1.1 -0.27138,2 -0.7872,2 -0.51582,0 -0.93785,-0.9 -0.93785,-2 z m -0.66667,-5.45601 c 0,-0.80081 0.375,-1.22425 0.83334,-0.94098 0.45833,0.28326 0.83333,0.93847 0.83333,1.45601 0,0.51754 -0.375,0.94098 -0.83333,0.94098 -0.45834,0 -0.83334,-0.65521 -0.83334,-1.45601 z m -0.59494,-4.22746 c -0.25403,-0.44909 -0.77046,-2.16653 -1.14762,-3.81653 -0.37716,-1.65 -0.9197,-3.7875 -1.20565,-4.75 -0.28594,-0.9625 -0.0769,-1.75 0.46463,-1.75 0.98971,0 3.55743,9.92615 2.77113,10.71246 -0.23134,0.23133 -0.62845,0.0532 -0.88249,-0.39593 z M -37.4671,587.3275 c -0.27174,-1.03912 -0.10611,-2.50162 0.36806,-3.25 0.68271,-1.07754 0.8653,-1.01355 0.87743,0.30751 0.008,0.91752 0.28845,2.38002 0.6223,3.25 0.33384,0.86999 0.16133,1.58179 -0.38337,1.58179 -0.5447,0 -1.21269,-0.85019 -1.48442,-1.8893 z m -242.7392,-0.16972 c 0,-0.58246 0.45,-0.7809 1,-0.44098 0.55,0.33992 1,0.81648 1,1.05902 0,0.24254 -0.45,0.44098 -1,0.44098 -0.55,0 -1,-0.47656 -1,-1.05902 z m 1.01531,-2.69098 c 0.008,-0.4125 0.45153,-1.425 0.98469,-2.25 0.78387,-1.21296 0.9723,-1.06944 0.98469,0.75 0.008,1.2375 -0.43469,2.25 -0.98469,2.25 -0.55,0 -0.99311,-0.3375 -0.98469,-0.75 z m 239.98469,-2.25 c 0,-0.55 0.47656,-1 1.05902,-1 0.58246,0 0.7809,0.45 0.44098,1 -0.33992,0.55 -0.81648,1 -1.05902,1 -0.24254,0 -0.44098,-0.45 -0.44098,-1 z m -238,-3 c 0,-0.55 0.45,-1 1,-1 0.55,0 0.9044,-0.3375 0.78755,-0.75 -0.11685,-0.4125 0.34898,-1.7625 1.03518,-3 0.6862,-1.2375 0.99525,-2.25 0.68677,-2.25 -0.30847,0 0.13725,-1.35 0.9905,-3 0.85325,-1.65 1.78064,-3 2.06086,-3 0.28023,0 0.0122,0.9292 -0.59559,2.0649 -0.60781,1.13569 -1.29267,3.04819 -1.52192,4.25 -0.66694,3.49624 -2.6099,7.6851 -3.56467,7.6851 -0.48327,0 -0.87868,-0.45 -0.87868,-1 z m 237.5,0 c 0.33992,-0.55 0.81648,-1 1.05902,-1 0.24254,0 0.44098,0.45 0.44098,1 0,0.55 -0.47656,1 -1.05902,1 -0.58246,0 -0.7809,-0.45 -0.44098,-1 z m -2.04806,-5.09293 c -0.87968,-1.70111 -1.42188,-3.27046 -1.2049,-3.48744 0.21698,-0.21699 1.14288,1.17483 2.05756,3.09293 2.05658,4.3127 1.34401,4.64239 -0.85266,0.39451 z m -93.88024,-0.65707 c 0.49777,-0.4125 1.24088,-1.2 1.65135,-1.75 0.42591,-0.57068 0.7529,-0.24868 0.76164,0.75 0.009,0.97279 -0.72489,1.75 -1.65136,1.75 -0.91666,0 -1.2594,-0.3375 -0.76163,-0.75 z m -0.90503,-1.91667 c -1.11386,-1.11385 -0.776,-7.51893 0.35959,-6.8171 0.56444,0.34884 0.92247,2.1754 0.79561,4.05901 -0.25466,3.78144 -0.21841,3.69488 -1.1552,2.75809 z m 91.33333,-3.19098 c 0,-1.08663 -0.54034,-2.1558 -1.20075,-2.37593 -0.80476,-0.26826 -0.85298,-0.61518 -0.14622,-1.05198 0.57998,-0.35845 1.55335,0.44309 2.16303,1.78121 0.6963,1.5282 0.75067,2.65409 0.14623,3.02766 -0.52926,0.3271 -0.96229,-0.29433 -0.96229,-1.38096 z m -87.9144,0.35765 c 0.10413,-1.89422 1.77076,-5.08385 1.8288,-3.5 0.0302,0.825 -0.38124,2.175 -0.9144,3 -0.53316,0.825 -0.94464,1.05 -0.9144,0.5 z m -135.85941,-5.07366 c 0.94941,-0.99401 2.00045,-1.53304 2.33565,-1.19784 0.3352,0.3352 -0.44159,1.14849 -1.72619,1.80729 -2.23286,1.14512 -2.25968,1.1183 -0.60946,-0.60945 z m 138.5056,-0.10981 c -0.25767,-0.44909 0.0666,-2.36667 0.72048,-4.26128 0.82929,-2.40268 1.43324,-3.04951 1.99646,-2.1382 0.44413,0.71861 0.41235,1.59374 -0.0706,1.94475 -0.48297,0.35101 -1.0334,1.5382 -1.22319,2.6382 -0.41645,2.41374 -0.79977,2.90302 -1.42314,1.81653 z m -6.88928,-2.06653 c -1.91799,-21.31171 -2.77655,-38.16704 -1.81561,-35.64401 0.44116,1.15829 1.05304,6.42172 1.35974,11.69651 0.3067,5.27479 0.85988,13.2146 1.22928,17.64402 0.3694,4.42941 0.38193,8.05348 0.0279,8.05348 -0.35408,0 -0.71465,-0.7875 -0.80127,-1.75 z m 88.08098,0.5 c -0.63844,-2.0861 -0.55049,-3.63751 0.18061,-3.18567 0.51069,0.31563 0.69338,0.95434 0.40598,1.41936 -0.2874,0.46502 0.0428,1.0734 0.73369,1.35195 0.99831,0.40248 0.99959,0.52267 0.006,0.58541 -0.6875,0.0434 -1.28443,-0.0335 -1.32651,-0.17105 z m -184.92349,-1.12756 c 0,-0.20765 0.7875,-0.99515 1.75,-1.75 1.58606,-1.24387 1.62143,-1.2085 0.37756,0.37756 -1.30637,1.66575 -2.12756,2.19548 -2.12756,1.37244 z m 182.33333,-4.07845 c 0,-0.80081 0.38234,-1.21971 0.84965,-0.9309 0.4673,0.28881 0.59075,0.94401 0.27431,1.45601 -0.80862,1.30838 -1.12396,1.16106 -1.12396,-0.52511 z m -75.7014,-1.33053 c -0.41712,-0.6749 -0.25376,-1.21346 0.36807,-1.21346 0.61492,0 0.84212,-0.44644 0.50489,-0.99208 -0.33722,-0.54564 -0.20105,-1.72843 0.30261,-2.62842 1.4773,-2.6398 2.11142,-0.15411 0.78673,3.08396 -0.80414,1.96564 -1.46486,2.55488 -1.9623,1.75 z m 73.55635,-0.65808 c 0.37856,-0.4209 -0.40894,-1.78215 -1.75,-3.025 -1.34105,-1.24285 -2.43828,-2.67128 -2.43828,-3.17429 0,-0.50301 -0.9,-1.56326 -2,-2.35609 -1.1,-0.79284 -2,-2.04373 -2,-2.77978 0,-0.75692 -0.50151,-1.0283 -1.15451,-0.62473 -0.68907,0.42587 -0.88407,0.27594 -0.48369,-0.37188 0.67502,-1.0922 -1.00259,-2.67983 -2.8618,-2.7083 -0.55,-0.008 -1,-0.57781 -1,-1.26531 0,-0.6875 -0.29026,-1.1375 -0.64501,-1 -0.9441,0.36592 -4.76954,-3.29434 -7.05461,-6.75 l -1.98376,-3 2.48883,2.68619 c 1.36886,1.4774 2.7029,2.47212 2.96454,2.21049 0.62407,-0.62407 16.73001,16.59865 16.73001,17.89007 0,0.54602 0.74317,1.53618 1.65149,2.20036 1.37832,1.00785 1.41967,1.34208 0.25,2.02057 -0.77082,0.44713 -1.09176,0.4686 -0.71321,0.0477 z m -70.64716,-7.48885 c -0.36254,-0.58659 -0.24011,-1.06653 0.27205,-1.06653 0.51217,0 1.21905,-1.8 1.57084,-4 0.35179,-2.2 1.11086,-4 1.68682,-4 0.57596,0 0.72612,-0.51953 0.33368,-1.15451 -0.419,-0.67795 -0.27658,-0.88446 0.34502,-0.50029 0.70804,0.4376 0.3989,2.39266 -0.93365,5.90451 -2.31382,6.0979 -2.40244,6.22826 -3.27476,4.81682 z m 4.47419,-12.81653 c 0.008,-0.4125 0.4385,-1.41933 0.95574,-2.23739 0.73909,-1.16897 0.90434,-1.0084 0.77188,0.75 -0.14936,1.98285 -1.76615,3.37483 -1.72762,1.48739 z m 2.98469,-7.81574 c 0,-0.31116 0.5405,-1.54866 1.2011,-2.75 0.66061,-1.20134 1.34011,-3.01976 1.51001,-4.04093 0.16989,-1.02116 0.77397,-2.59617 1.34239,-3.5 0.7714,-1.22659 0.86638,-0.75575 0.37452,1.85667 -0.36243,1.925 -1.0531,3.9914 -1.53482,4.59201 -0.48171,0.6006 -0.57975,1.3881 -0.21786,1.75 0.3619,0.36189 0.10644,0.65799 -0.56769,0.65799 -0.67413,0 -0.94757,0.45 -0.60765,1 0.33992,0.55 0.14148,1 -0.44098,1 -0.58246,0 -1.05902,-0.25458 -1.05902,-0.56574 z m 35,-0.58751 c 0,-0.45095 -1.575,-1.47799 -3.5,-2.2823 -3.77979,-1.5793 -4.36409,-2.23112 -2,-2.23112 0.825,0 1.5,0.40156 1.5,0.89235 0,0.4908 0.33772,0.68363 0.75049,0.42852 0.41278,-0.2551 2.01361,0.54334 3.5574,1.77432 1.87022,1.49126 2.28719,2.23815 1.24951,2.23815 -0.85657,0 -1.5574,-0.36896 -1.5574,-0.81992 z m -149.91667,-2.12972 c 0.22917,-0.15563 1.21447,-0.89428 2.18956,-1.64144 1.54348,-1.18269 1.69139,-1.14607 1.14301,0.28297 -0.34643,0.90279 -1.33173,1.64144 -2.18955,1.64144 -0.85783,0 -1.37218,-0.12733 -1.14302,-0.28297 z m 90.98696,-6.46703 c 0.0529,-3.57396 0.28306,-4.25483 0.92971,-2.75 1.20123,2.7954 1.20123,7.5 0,7.5 -0.55,0 -0.96837,-2.1375 -0.92971,-4.75 z m -86.07029,3.11852 c 0,-0.16399 0.88987,-0.7744 1.9775,-1.35648 1.55113,-0.83014 1.86526,-0.76586 1.45696,0.29815 -0.42927,1.11867 -3.43446,2.04472 -3.43446,1.05833 z m 133.66442,-1.39106 c -1.70742,-1.05594 -2.40367,-2.02058 -1.75,-2.42457 0.59707,-0.36901 1.08558,-0.28124 1.08558,0.19505 0,0.47629 1.2375,1.30368 2.75,1.83866 1.5125,0.53497 2.3,1.23634 1.75,1.5586 -0.55,0.32225 -2.27601,-0.20323 -3.83558,-1.16774 z M -222.2063,518.2206 c 0,-0.51339 0.88987,-1.40968 1.9775,-1.99176 1.58626,-0.84894 1.86773,-0.77228 1.42268,0.3875 -0.64554,1.68224 -3.40018,2.98192 -3.40018,1.60426 z m 7.53777,-3.94269 c -0.28946,-0.46835 0.13172,-1.10404 0.93595,-1.41265 0.80423,-0.30861 1.69906,-0.17792 1.98851,0.29043 0.28946,0.46835 -0.13172,1.10404 -0.93595,1.41265 -0.80423,0.30861 -1.69906,0.17792 -1.98851,-0.29043 z m 103.018,0.0291 c -1.29307,-2.09224 0.62035,-3.92231 3.6942,-3.53329 3.69222,0.46727 5.45035,1.89219 3.68265,2.98469 -0.85723,0.5298 -0.98822,0.35733 -0.42308,-0.55707 0.58771,-0.95094 0.36749,-1.15136 -0.78089,-0.71069 -0.87969,0.33757 -1.74959,0.16329 -1.93312,-0.38729 -0.18352,-0.55058 -1.08418,-0.71305 -2.00146,-0.36106 -0.91937,0.35279 -1.42373,1.27597 -1.12394,2.05723 0.60123,1.56677 -0.22667,1.94379 -1.11436,0.50748 z m 9.44423,-0.0902 c 0,-0.55 0.47656,-1 1.05902,-1 0.58246,0 0.7809,0.45 0.44098,1 -0.33992,0.55 -0.81648,1 -1.05902,1 -0.24254,0 -0.44098,-0.45 -0.44098,-1 z m -109,-2.39457 c 0,-0.74336 4.00965,-1.39884 4.42691,-0.72369 0.2359,0.38169 -0.66365,0.7844 -1.999,0.89492 -1.33535,0.11051 -2.42791,0.0335 -2.42791,-0.17123 z m 70.03846,-0.10543 c -0.17102,-0.55 -0.38757,-2.36459 -0.48122,-4.03243 -0.24849,-4.42533 -1.10308,-5.24191 -5.03273,-4.80886 -1.99005,0.2193 -3.52451,-0.0572 -3.52451,-0.63516 0,-1.60659 8.96891,-1.26815 9.59447,0.36205 0.29244,0.76207 0.35693,3.34957 0.14333,5.75 -0.21361,2.40042 -0.52831,3.9144 -0.69934,3.3644 z m -58.53846,-3.5 c -0.33992,-0.55 -0.14148,-1 0.44098,-1 0.58246,0 1.05902,0.45 1.05902,1 0,0.55 -0.19844,1 -0.44098,1 -0.24254,0 -0.7191,-0.45 -1.05902,-1 z m 2.8397,-1.25937 c -0.36406,-0.58906 -0.17244,-0.75529 0.43669,-0.37883 0.59698,0.36895 1.3726,0.20614 1.72361,-0.3618 0.35101,-0.56794 1.07682,-0.76154 1.6129,-0.43022 0.53609,0.33132 1.62427,0.0633 2.41817,-0.59557 0.7939,-0.65888 2.12419,-0.93674 2.95619,-0.61747 0.83201,0.31927 1.51274,0.14461 1.51274,-0.38812 0,-1.30953 2.71788,-1.23411 3.54134,0.0983 0.36265,0.58679 0.0517,0.96581 -0.69099,0.84228 -0.74269,-0.12353 -2.02535,0.0306 -2.85035,0.34243 -4.46429,1.68758 -10.05497,2.46849 -10.6603,1.48904 z m 15.6603,-3.74063 c 0,-0.55 0.70156,-1 1.55902,-1 0.85746,0 1.2809,0.45 0.94098,1 -0.33992,0.55 -1.04148,1 -1.55902,1 -0.51754,0 -0.94098,-0.45 -0.94098,-1 z m 6.58728,-1.14122 c 0.26281,-0.42524 1.70069,-0.69891 3.19528,-0.60816 1.49459,0.0907 4.51744,-0.17355 6.71744,-0.58732 l 4,-0.75232 -2.93469,1.58103 c -2.91102,1.56827 -11.90634,1.8688 -10.97803,0.36677 z m 16.67647,-1.57636 c 1.52006,-0.22986 3.77006,-0.22371 5,0.0137 1.22994,0.23736 -0.0137,0.42542 -2.76375,0.41792 -2.75,-0.008 -3.75631,-0.20172 -2.23625,-0.43157 z"
         id="path3507"
         inkscape:connector-curvature="0" />
      <path
         style="fill:#cfce5e"
         d="m -149.3938,747.53369 c 0.72187,-0.28887 1.58437,-0.25335 1.91667,0.0789 0.33229,0.33229 -0.25834,0.56864 -1.3125,0.52522 -1.16495,-0.048 -1.4019,-0.28494 -0.60417,-0.60416 z m -34.8125,-2.31689 c -0.90129,-0.58246 -1.02463,-0.97549 -0.30902,-0.98469 0.65504,-0.008 1.4691,0.43469 1.80902,0.98469 0.7673,1.24153 0.42112,1.24153 -1.5,0 z m 58.8125,-1.68311 c 0.72187,-0.28887 1.58437,-0.25335 1.91667,0.0789 0.33229,0.33229 -0.25834,0.56864 -1.3125,0.52522 -1.16495,-0.048 -1.4019,-0.28494 -0.60417,-0.60416 z m -69,-1 c 0.72188,-0.28887 1.58438,-0.25335 1.91667,0.0789 0.33229,0.33229 -0.25834,0.56864 -1.3125,0.52522 -1.16495,-0.048 -1.4019,-0.28494 -0.60417,-0.60416 z m -10.8125,-3.31689 c -0.825,-0.53316 -1.05,-0.96937 -0.5,-0.96937 0.55,0 1.675,0.43621 2.5,0.96937 0.825,0.53316 1.05,0.96937 0.5,0.96937 -0.55,0 -1.675,-0.43621 -2.5,-0.96937 z m -5.55887,-2.55517 c -1.83031,-1.46637 -1.7984,-1.48719 0.55887,-0.36454 3.06103,1.45781 3.62834,1.91971 2.3578,1.91971 -0.53655,0 -1.84905,-0.69982 -2.91667,-1.55517 z m -4.62863,-2.12794 c 0.72188,-0.28887 1.58438,-0.25335 1.91667,0.0789 0.33229,0.33229 -0.25834,0.56864 -1.3125,0.52522 -1.16495,-0.048 -1.4019,-0.28494 -0.60417,-0.60416 z m 115.1875,-0.31689 c 0,-0.55 0.47656,-1 1.05902,-1 0.58246,0 0.7809,0.45 0.44098,1 -0.33992,0.55 -0.81648,1 -1.05902,1 -0.24254,0 -0.44098,-0.45 -0.44098,-1 z m -119.83418,-1.48223 c -3.75484,-2.06892 -4.96878,-3.76505 -1.43185,-2.0006 1.77445,0.88521 3.48677,2.03098 3.80517,2.54615 0.69119,1.11837 0.61452,1.10075 -2.37332,-0.54555 z m 126.39847,-1.8109 c 0.37553,-0.98622 0.93469,-1.54122 1.24258,-1.23333 0.30789,0.30789 6.4e-4,1.11479 -0.68278,1.79313 -0.98762,0.98026 -1.10248,0.8654 -0.5598,-0.5598 z m 3.93571,-2.70687 c 0.33992,-0.55 0.81648,-1 1.05902,-1 0.24254,0 0.44098,0.45 0.44098,1 0,0.55 -0.47656,1 -1.05902,1 -0.58246,0 -0.7809,-0.45 -0.44098,-1 z m 4.5,-2.37756 c 0,-0.20765 0.7875,-0.99515 1.75,-1.75 1.58606,-1.24387 1.62143,-1.2085 0.37756,0.37756 -1.30637,1.66575 -2.12756,2.19548 -2.12756,1.37244 z m -152.49292,-4.61099 c -0.35034,-0.56686 0.0511,-0.7345 0.94098,-0.39301 1.73242,0.66479 2.04939,1.38156 0.61096,1.38156 -0.51754,0 -1.21592,-0.44485 -1.55194,-0.98855 z m 158.49292,0.61099 c 0,-0.20765 0.7875,-0.99515 1.75,-1.75 1.58606,-1.24387 1.62143,-1.2085 0.37756,0.37756 -1.30637,1.66575 -2.12756,2.19548 -2.12756,1.37244 z m -167.97104,-8.58338 c -0.80907,-0.51167 -1.25836,-1.14299 -0.99843,-1.40293 0.25994,-0.25993 1.34542,0.1656 2.41217,0.94563 2.13344,1.56001 0.94021,1.94598 -1.41374,0.4573 z m 175.97104,0.57595 c 0,-0.21174 1.2375,-1.18141 2.75,-2.1548 l 2.75,-1.76981 -1.90499,2.1548 c -1.68575,1.90682 -3.59501,2.84674 -3.59501,1.76981 z m 6,-4.55599 c 0,-0.51754 0.44485,-1.21592 0.98855,-1.55194 0.56686,-0.35034 0.7345,0.0511 0.39301,0.94098 -0.66479,1.73242 -1.38156,2.04939 -1.38156,0.61096 z m -189,-4.11804 c 0,-0.58246 0.45,-0.7809 1,-0.44098 0.55,0.33992 1,0.81648 1,1.05902 0,0.24254 -0.45,0.44098 -1,0.44098 -0.55,0 -1,-0.47656 -1,-1.05902 z m -3.81194,-3.90049 c -1.20343,-1.62773 -2.18806,-3.29015 -2.18806,-3.69428 0,-0.40412 1.125,0.79008 2.5,2.65379 1.375,1.86371 2.5,3.52613 2.5,3.69428 0,0.81714 -0.81315,0.0497 -2.81194,-2.65379 z m 202.8479,-3.59621 c 0.0382,-1.00381 4.95064,-7.33225 4.95907,-6.38856 0.003,0.30565 -1.12003,2.08057 -2.49503,3.94428 -1.375,1.86371 -2.48382,2.96363 -2.46404,2.44428 z m -208.95494,-4.29289 c -1.63351,-3.05224 -1.29525,-3.90227 0.52098,-1.30923 0.8811,1.25795 1.36756,2.52162 1.08102,2.80815 -0.28654,0.28654 -1.00744,-0.38797 -1.602,-1.49892 z M -49.2063,688.2168 c 0.5887,-1.1 1.29537,-2 1.57037,-2 0.275,0 0.0183,0.9 -0.57037,2 -0.5887,1.1 -1.29537,2 -1.57037,2 -0.275,0 -0.0183,-0.9 0.57037,-2 z m -218.89961,-1.29548 c -1.26492,-2.10631 -1.24361,-2.12762 0.47833,-0.47833 0.99123,0.94941 1.58698,1.94144 1.3239,2.20452 -0.26308,0.26308 -1.07408,-0.5137 -1.80223,-1.72619 z m 220.96322,-2.20452 c 0,-0.55 0.66069,-1.87351 1.46819,-2.94113 0.80751,-1.06762 1.4682,-1.49113 1.4682,-0.94113 0,0.55 -0.66069,1.87351 -1.4682,2.94113 -0.8075,1.06762 -1.46819,1.49113 -1.46819,0.94113 z m -227.49932,-10.20687 c -0.54268,-1.4252 -0.42782,-1.54006 0.5598,-0.5598 0.68342,0.67834 0.99067,1.48524 0.68278,1.79313 -0.30788,0.30789 -0.86705,-0.24711 -1.24258,-1.23333 z m -7.4064,-21.29313 c 0,-1.375 0.22698,-1.9375 0.50439,-1.25 0.27741,0.6875 0.27741,1.8125 0,2.5 -0.27741,0.6875 -0.50439,0.125 -0.50439,-1.25 z m 248,-1 c 0,-1.375 0.22698,-1.9375 0.50439,-1.25 0.27741,0.6875 0.27741,1.8125 0,2.5 -0.27741,0.6875 -0.50439,0.125 -0.50439,-1.25 z m 1.45241,-6.5 c 0.82247,-3.67693 1.39483,-4.47511 1.37439,-1.91667 -0.008,1.05417 -0.47209,2.59167 -1.03038,3.41667 -0.74131,1.09546 -0.83408,0.69092 -0.34401,-1.5 z m -251.26522,-1.04313 c -0.32569,-0.84872 -0.36872,-1.76657 -0.0956,-2.03966 0.27309,-0.2731 0.73656,0.42131 1.02992,1.54313 0.62315,2.38293 -0.0692,2.75089 -0.9343,0.49653 z M -31.04841,630.2168 c 0,-1.375 0.22698,-1.9375 0.50439,-1.25 0.27741,0.6875 0.27741,1.8125 0,2.5 -0.27741,0.6875 -0.50439,0.125 -0.50439,-1.25 z m -254.07894,-0.58333 c 0.048,-1.16495 0.28494,-1.4019 0.60416,-0.60417 0.28887,0.72187 0.25335,1.58437 -0.0789,1.91667 -0.33229,0.33229 -0.56864,-0.25834 -0.52522,-1.3125 z m 254,-11 c 0.048,-1.16495 0.28494,-1.4019 0.60416,-0.60417 0.28887,0.72187 0.25335,1.58437 -0.0789,1.91667 -0.3323,0.33229 -0.56864,-0.25834 -0.52522,-1.3125 z m 0.07894,-4.41667 c 0,-1.375 0.22698,-1.9375 0.50439,-1.25 0.27741,0.6875 0.27741,1.8125 0,2.5 -0.27741,0.6875 -0.50439,0.125 -0.50439,-1.25 z m -1.88816,-11.06928 c -0.17299,-2.29656 0.29838,-2.4986 1.07961,-0.46275 0.30982,0.80739 0.22638,1.67622 -0.18543,1.93073 -0.41181,0.25451 -0.81419,-0.40608 -0.89418,-1.46798 z m -5.19078,-19.51405 c 0.048,-1.16495 0.28494,-1.4019 0.60416,-0.60417 0.28887,0.72187 0.25335,1.58437 -0.0789,1.91667 -0.3323,0.33229 -0.56864,-0.25834 -0.52522,-1.3125 z m -2.41228,-5.08334 c -0.36667,-0.36666 -0.66667,-1.13166 -0.66667,-1.7 0,-0.6266 0.46577,-0.56756 1.18333,0.15 0.65084,0.65084 0.95084,1.41584 0.66667,1.7 -0.28417,0.28417 -0.81667,0.21667 -1.18333,-0.15 z m -231.02402,-9.80964 c 1.39059,-2.48803 2.72401,-4.52369 2.96317,-4.52369 0.70176,0 -3.48475,7.80714 -4.53438,8.45584 -0.52642,0.32535 0.18062,-1.44411 1.57121,-3.93215 z m 135.69068,3.0203 c 0,-0.80081 0.34421,-1.24328 0.76491,-0.98327 0.42071,0.26001 1.47071,-0.53492 2.33334,-1.7665 0.86263,-1.23158 1.56842,-1.75796 1.56842,-1.16974 0,1.08802 -3.35042,5.37552 -4.20063,5.37552 -0.25632,0 -0.46604,-0.65521 -0.46604,-1.45601 z m 4.74562,-7.12732 c 0.048,-1.16495 0.28494,-1.4019 0.60416,-0.60417 0.28887,0.72187 0.25335,1.58437 -0.0789,1.91667 -0.3323,0.33229 -0.56864,-0.25834 -0.52522,-1.3125 z m 83.48534,-1.12354 c -0.54268,-1.4252 -0.42782,-1.54006 0.5598,-0.5598 0.68342,0.67834 0.99067,1.48524 0.68278,1.79313 -0.30789,0.30789 -0.86705,-0.24711 -1.24258,-1.23333 z m -3.33223,-5.04313 c -2.58892,-3.73899 -3.43047,-5.25 -2.92396,-5.25 0.23437,0 1.61731,1.8 3.0732,4 2.95891,4.47122 2.82982,5.55245 -0.14924,1.25 z m -74.15311,-9.83333 c 0.048,-1.16495 0.28494,-1.4019 0.60416,-0.60417 0.28887,0.72187 0.25335,1.58437 -0.0789,1.91667 -0.3323,0.33229 -0.56864,-0.25834 -0.52522,-1.3125 z m 58.47667,-9.3533 -3.94438,-4.56337 4.39536,4.21569 c 2.41745,2.31862 4.19242,4.37214 3.94438,4.56337 -0.24804,0.19123 -2.22595,-1.70583 -4.39536,-4.21569 z m -53.99133,-2.3565 c 0.37553,-0.98622 0.93469,-1.54122 1.24258,-1.23333 0.30789,0.30789 6.4e-4,1.11479 -0.68278,1.79313 -0.98762,0.98026 -1.10248,0.8654 -0.5598,-0.5598 z m -19.4064,-6.70687 c 0,-1.375 0.22698,-1.9375 0.50439,-1.25 0.27741,0.6875 0.27741,1.8125 0,2.5 -0.27741,0.6875 -0.50439,0.125 -0.50439,-1.25 z m 21.92771,1 c -0.0302,-0.825 0.38124,-2.175 0.9144,-3 1.18132,-1.82797 1.18132,-0.24909 0,2.5 -0.56668,1.31874 -0.87815,1.48905 -0.9144,0.5 z m 38.83871,-2.63572 c -2.1633,-2.35194 -2.20013,-2.51932 -0.34207,-1.55459 2.48661,1.29106 5.05665,4.19031 3.71452,4.19031 -0.52147,0 -2.03907,-1.18607 -3.37245,-2.63572 z m -4.92431,-3.36428 c -0.90129,-0.58246 -1.02463,-0.97549 -0.30902,-0.98469 0.65504,-0.008 1.4691,0.43469 1.80902,0.98469 0.7673,1.24152 0.42112,1.24152 -1.5,0 z m -145,-2.42963 c 0,-0.275 0.9,-0.98167 2,-1.57037 1.1,-0.5887 2,-0.84537 2,-0.57037 0,0.275 -0.9,0.98167 -2,1.57037 -1.1,0.5887 -2,0.84537 -2,0.57037 z m 140,-1.57037 c -0.90129,-0.58246 -1.02463,-0.97549 -0.30902,-0.98469 0.65504,-0.008 1.4691,0.43469 1.80902,0.98469 0.7673,1.24152 0.42112,1.24152 -1.5,0 z m -128.55887,-5.5318 c 1.06762,-0.80751 2.39113,-1.4682 2.94113,-1.4682 0.55,0 0.12649,0.66069 -0.94113,1.4682 -1.06762,0.8075 -2.39113,1.46819 -2.94113,1.46819 -0.55,0 -0.12649,-0.66069 0.94113,-1.46819 z m 117.55887,-0.4682 c -0.90129,-0.58246 -1.02463,-0.97549 -0.30902,-0.98469 0.65504,-0.008 1.4691,0.43469 1.80902,0.98469 0.7673,1.24152 0.42112,1.24152 -1.5,0 z m -5,-2 c -0.825,-0.53316 -1.05,-0.96937 -0.5,-0.96937 0.55,0 1.675,0.43621 2.5,0.96937 0.825,0.53316 1.05,0.96937 0.5,0.96937 -0.55,0 -1.675,-0.43621 -2.5,-0.96937 z m -106.1875,-0.68311 c 0.72188,-0.28887 1.58438,-0.25335 1.91667,0.079 0.33229,0.33229 -0.25834,0.56864 -1.3125,0.52522 -1.16495,-0.048 -1.4019,-0.28495 -0.60417,-0.60417 z m 3.1875,-0.85135 c 0,-0.69763 7.26544,-3.54373 8.2276,-3.22301 0.47842,0.15947 -1.17708,1.0486 -3.67887,1.97583 -2.5018,0.92723 -4.54873,1.48846 -4.54873,1.24718 z m 98.50708,-0.45409 c -0.35034,-0.56686 0.0511,-0.7345 0.94098,-0.39301 1.73242,0.66479 2.04939,1.38156 0.61096,1.38156 -0.51754,0 -1.21592,-0.44485 -1.55194,-0.98855 z m -88.50708,-3.40446 c 0,-0.21616 0.69837,-0.661 1.55194,-0.98855 0.88992,-0.34149 1.29132,-0.17385 0.94098,0.39301 -0.58726,0.95021 -2.49292,1.40545 -2.49292,0.59554 z m 19.5,-4.60699 c 0.33992,-0.55 0.81648,-1 1.05902,-1 0.24254,0 0.44098,0.45 0.44098,1 0,0.55 -0.47656,1 -1.05902,1 -0.58246,0 -0.7809,-0.45 -0.44098,-1 z m 14.81684,-1.65018 c 0.71849,-0.71848 12.8144,-0.55192 13.55294,0.18663 0.25495,0.25495 -2.83645,0.46355 -6.86978,0.46355 -4.03333,0 -7.04075,-0.29258 -6.68316,-0.65018 z"
         id="path3505"
         inkscape:connector-curvature="0" />
      <path
         style="fill:#e2a468"
         d="m -239.4563,561.55452 c 0.6875,-0.27741 1.8125,-0.27741 2.5,0 0.6875,0.27741 0.125,0.50438 -1.25,0.50438 -1.375,0 -1.9375,-0.22697 -1.25,-0.50438 z m -10.19113,-5.86952 c -1.06762,-0.80751 -1.46022,-1.4682 -0.87244,-1.4682 0.58777,0 1.62888,0.675 2.31357,1.5 1.5572,1.87632 1.06734,1.86551 -1.44113,-0.0318 z m 15.44113,-9.49959 c 0,-0.53273 0.675,-0.96861 1.5,-0.96861 0.825,0 1.5,0.17685 1.5,0.39301 0,0.21616 -0.675,0.65203 -1.5,0.96862 -0.825,0.31658 -1.5,0.13972 -1.5,-0.39302 z m 9,-3.34617 c 0,-0.20765 0.7875,-0.99515 1.75,-1.75 1.58606,-1.24387 1.62143,-1.2085 0.37756,0.37756 -1.30637,1.66575 -2.12756,2.19548 -2.12756,1.37244 z m -9.8421,-4.62244 c 0,-1.375 0.22697,-1.9375 0.50438,-1.25 0.27741,0.6875 0.27741,1.8125 0,2.5 -0.27741,0.6875 -0.50438,0.125 -0.50438,-1.25 z m 13.92105,-3.58333 c 0.048,-1.16495 0.28494,-1.4019 0.60416,-0.60417 0.28888,0.72187 0.25335,1.58437 -0.0789,1.91667 -0.33229,0.33229 -0.56864,-0.25834 -0.52522,-1.3125 z m -44.07895,-3.12756 c 0,-0.57432 0.7875,-1.66182 1.75,-2.41667 1.61876,-1.26951 1.63998,-1.22245 0.28297,0.62756 -0.80687,1.1 -1.59437,2.1875 -1.75,2.41667 -0.15563,0.22916 -0.28297,-0.0532 -0.28297,-0.62756 z m 40.87245,-4.03911 c -1.24388,-1.58606 -1.20851,-1.62143 0.37755,-0.37756 0.9625,0.75485 1.75,1.54235 1.75,1.75 0,0.82304 -0.82119,0.29331 -2.12755,-1.37244 z m -8.62245,-2.93933 c 0.9625,-0.25152 2.5375,-0.25152 3.5,0 0.9625,0.25153 0.175,0.45733 -1.75,0.45733 -1.925,0 -2.7125,-0.2058 -1.75,-0.45733 z m -18.5,-1.97295 c 0.6875,-0.27741 1.8125,-0.27741 2.5,0 0.6875,0.27741 0.125,0.50438 -1.25,0.50438 -1.375,0 -1.9375,-0.22697 -1.25,-0.50438 z"
         id="path3503"
         inkscape:connector-curvature="0" />
      <path
         style="fill:#fcf001"
         d="m -257.51813,549.30857 c -6.94378,-4.79147 -8.61259,-11.24192 -4.59163,-17.74798 3.70967,-6.00237 10.32566,-7.86553 17.41368,-4.90397 9.47971,3.96088 9.79475,18.24839 0.50826,23.05062 -3.66767,1.89663 -10.29103,1.69854 -13.33031,-0.39867 z"
         id="path3501"
         inkscape:connector-curvature="0" />
      <path
         style="fill:#fb5b90"
         d="m -267.45562,561.52761 c -0.96212,-0.25146 -2.03023,-1.57644 -2.37357,-2.9444 -0.7393,-2.94564 0.11889,-10.39615 1.29706,-11.26053 0.45421,-0.33323 0.95638,-1.55798 1.11595,-2.72166 0.24097,-1.75732 -0.36707,-2.22086 -3.58894,-2.73606 -8.66146,-1.38502 -12.09977,-9.49695 -6.35728,-14.99861 2.953,-2.82916 10.1561,-4.82338 10.1561,-2.81178 0,0.6047 0.675,0.84044 1.5,0.52386 0.825,-0.31659 1.5,-0.0509 1.5,0.5904 0,0.6413 0.45,0.88789 1,0.54797 0.55,-0.33992 1,-2.66097 1,-5.15789 0,-8.8336 4.75246,-14.34211 12.37362,-14.34211 6.90839,0 12.44822,7.83603 11.34656,16.04957 -0.36351,2.71019 -0.10729,3.97164 0.88397,4.35202 0.76772,0.2946 1.39585,0.16824 1.39585,-0.2808 0,-1.2444 6.14293,-1.21525 9.29716,0.0441 2.77094,1.10634 5.70284,5.34179 5.70284,8.23839 0,4.58755 -6.4988,10.59671 -11.46016,10.59671 -1.88998,0 -1.891,0.40827 -0.0145,5.79559 3.44793,9.89879 -5.47288,13.50386 -14.1996,5.73833 -3.5579,-3.16602 -3.89491,-3.27368 -4.82539,-1.54153 -2.56609,4.77695 -10.09335,7.79672 -15.74967,6.31842 z m 7.82608,-1.34 c 1.48883,-0.56605 4.2003,-2.65952 6.02548,-4.65215 l 3.31851,-3.62298 4.01442,3.62678 c 5.28981,4.77903 8.5889,5.59791 11.3657,2.82112 1.9537,-1.95371 2.01995,-2.45121 0.84976,-6.38124 -2.65506,-8.91682 -2.70187,-8.56234 1.1308,-8.56234 4.81647,0 7.63685,-1.76016 9.33581,-5.82636 1.20282,-2.87875 1.22927,-3.92158 0.15624,-6.1604 -2.00073,-4.17436 -6.03894,-5.67882 -11.29378,-4.20756 -2.37693,0.6655 -4.78456,0.92394 -5.35028,0.5743 -0.60917,-0.37648 -0.79599,-2.59962 -0.45816,-5.45206 0.40348,-3.40678 0.082,-5.84572 -1.09861,-8.33358 -2.83547,-5.97531 -10.26399,-7.68423 -15.14654,-3.48444 -2.28423,1.96481 -2.78321,3.37674 -3.33997,9.45087 -0.35999,3.92753 -0.9097,7.39612 -1.22156,7.70798 -0.31186,0.31186 -1.87147,-0.11326 -3.4658,-0.9447 -4.18206,-2.18097 -7.72821,-1.87485 -10.75276,0.9282 -5.26475,4.87921 -2.56927,11.21184 5.21684,12.25618 3.72342,0.49942 5.80643,2.39962 4.66141,4.2523 -0.26522,0.42914 -1.16378,3.39694 -1.9968,6.59512 -1.35325,5.19547 -1.35303,6.06143 0.002,8.12951 1.65315,2.52303 3.86352,2.87611 8.04726,1.28545 z"
         id="path3499"
         inkscape:connector-curvature="0" />
      <path
         style="fill:#fbcd0b"
         d="m -257.39326,551.86128 c -2.74799,-1.22018 -6.81304,-5.27595 -6.81304,-6.79749 0,-1.63611 -0.20595,-2.3633 -1.19015,-4.20229 -1.75939,-3.28744 0.0597,-8.67618 4.30616,-12.75616 6.44464,-6.19201 14.09966,-6.40196 20.24853,-0.55535 1.83179,1.74175 3.84914,4.14973 4.48299,5.35107 1.41673,2.68511 1.51442,8.97401 0.15247,9.81574 -0.55,0.33992 -1,1.46858 -1,2.50813 0,3.02141 -8.82032,8.83899 -11.18523,7.37739 -0.55262,-0.34153 0.8287,-1.44183 3.06958,-2.4451 13.41433,-6.00578 8.93364,-24.94042 -5.90189,-24.94042 -8.99938,0 -15.88139,10.65924 -11.82534,18.31574 1.17267,2.21362 5.7183,6.5767 7.09288,6.80804 0.4125,0.0694 1.2,0.23872 1.75,0.37622 0.55,0.1375 1.47656,0.30625 2.05902,0.375 1.44576,0.17065 0.12385,2.14552 -1.36804,2.04378 -0.65504,-0.0447 -2.40011,-0.6181 -3.87794,-1.2743 z"
         id="path3497"
         inkscape:connector-curvature="0" />
      <path
         style="fill:#f36176"
         d="m -264.3938,562.53369 c 0.72188,-0.28887 1.58438,-0.25335 1.91667,0.079 0.33229,0.33229 -0.25834,0.56864 -1.3125,0.52522 -1.16495,-0.048 -1.4019,-0.28495 -0.60417,-0.60417 z m 5.62007,-1.20779 c 0.71346,-1.15439 4.56743,-3.48267 4.56743,-2.75929 0,0.23109 -1.18041,1.1936 -2.62312,2.13891 -1.44272,0.9453 -2.31766,1.22448 -1.94431,0.62038 z m 23.56743,-0.48666 c 0,-0.20765 0.7875,-0.99515 1.75,-1.75 1.58606,-1.24387 1.62143,-1.2085 0.37756,0.37756 -1.30637,1.66575 -2.12756,2.19548 -2.12756,1.37244 z"
         id="path3495"
         inkscape:connector-curvature="0" />
    </g>
  </g>
</svg>
