<?xml version="1.0" encoding="UTF-8" standalone="no"?>
<!-- Created with Inkscape (http://www.inkscape.org/) -->

<svg
   xmlns:dc="http://purl.org/dc/elements/1.1/"
   xmlns:cc="http://creativecommons.org/ns#"
   xmlns:rdf="http://www.w3.org/1999/02/22-rdf-syntax-ns#"
   xmlns:svg="http://www.w3.org/2000/svg"
   xmlns="http://www.w3.org/2000/svg"
   xmlns:sodipodi="http://sodipodi.sourceforge.net/DTD/sodipodi-0.dtd"
   xmlns:inkscape="http://www.inkscape.org/namespaces/inkscape"
   width="286.66754mm"
   height="277.69336mm"
   viewBox="0 0 1015.7511 983.95284"
   id="svg2"
   version="1.1"
   inkscape:version="0.91 r13725"
   sodipodi:docname="lily.svg">
  <defs
     id="defs4" />
  <sodipodi:namedview
     id="base"
     pagecolor="#ffffff"
     bordercolor="#666666"
     borderopacity="1.0"
     inkscape:pageopacity="0.0"
     inkscape:pageshadow="2"
     inkscape:zoom="0.35"
     inkscape:cx="1459.8769"
     inkscape:cy="823.5818"
     inkscape:document-units="px"
     inkscape:current-layer="layer1"
     showgrid="false"
     fit-margin-top="0"
     fit-margin-left="0"
     fit-margin-right="0"
     fit-margin-bottom="0"
     inkscape:window-width="1920"
     inkscape:window-height="1011"
     inkscape:window-x="-9"
     inkscape:window-y="-9"
     inkscape:window-maximized="1" />
  <metadata
     id="metadata7">
    <rdf:RDF>
      <cc:Work
         rdf:about="">
        <dc:format>image/svg+xml</dc:format>
        <dc:type
           rdf:resource="http://purl.org/dc/dcmitype/StillImage" />
        <dc:title></dc:title>
      </cc:Work>
    </rdf:RDF>
  </metadata>
  <g
     inkscape:label="Layer 1"
     inkscape:groupmode="layer"
     id="layer1"
     transform="translate(1084.8769,-371.99117)">
    <g
       id="g3427"
       transform="translate(-1617.1429,545.71429)">
      <path
         style="fill:#fce803"
         d="M 639.54867,27.796789 C 622.85873,17.620287 615.17681,5.2266582 612.2291,-16.279255 c -2.51285,-18.333214 5.95499,-47.113649 13.86187,-47.113649 2.18858,0 8.43109,-4.451848 13.87224,-9.892996 7.55208,-7.55208 14.00948,-9.892996 27.28976,-9.892996 22.13905,0 42.32096,6.966118 42.32096,14.60778 0,3.255536 3.44947,6.821209 7.66549,7.923724 12.73103,3.329239 22.66691,48.115821 12.1205,54.6338654 -2.17646,1.345127 -3.9572,5.74377067 -3.9572,9.7747669 0,8.0145257 -18.91079,25.7515437 -31.82613,29.8507107 -4.46975,1.418644 -10.7863,0.370829 -14.03926,-2.328882 -4.4792,-3.717404 -7.02477,-3.796707 -10.49454,-0.326944 -6.56405,6.564054 -15.03555,5.656605 -29.49412,-3.159344 z"
         id="path3435"
         inkscape:connector-curvature="0" />
      <path
         style="fill:#fb5a90"
         d="m 606.68677,72.224675 c -3.26469,-1.242754 -7.24408,-4.218461 -8.8431,-6.612688 -4.68712,-7.018072 -3.12954,-38.710554 2.70676,-55.075228 5.73407,-16.0780691 5.95635,-15.7589923 -13.99598,-20.0909849 -5.63163,-1.2227231 -14.98051,-5.9525481 -20.77529,-10.5107271 -8.51736,-6.699754 -10.53597,-11.576926 -10.53597,-25.456004 0,-14.433347 2.00435,-18.854958 12.58165,-27.755165 10.24524,-8.620808 15.5729,-10.280821 28.68969,-8.939271 8.85942,0.906119 19.22433,3.031273 23.03314,4.722568 6.09758,2.707626 6.92509,0.636697 6.92509,-17.330804 0,-36.415021 16.4368,-55.627641 47.59061,-55.627641 15.43168,0 20.07466,2.00718 31.20383,13.48956 11.31769,11.67691 13.3486,16.90305 15.11367,38.892169 l 2.03908,25.402598 15.59465,-4.16245 c 13.17431,-3.516422 17.83773,-2.950285 30.04715,3.647722 20.20911,10.921052 27.57584,30.65312 19.05634,51.043139 -4.91831,11.771193 -10.21863,16.4766856 -26.13308,23.2003496 -14.83816,6.2689384 -19.31629,9.9991994 -17.4427,14.5296774 1.38641,3.352451 3.38359,13.218325 4.43817,21.924161 1.60382,13.240003 0.27411,17.363807 -8.13029,25.214402 -13.01234,12.154891 -32.61475,9.118505 -52.21126,-8.087461 l -13.85138,-12.161674 -9.80423,10.578945 c -15.71255,16.954114 -40.9384,25.391771 -57.29655,19.164807 z m 23.74319,-14.923027 c 0,-3.264688 1.88584,-5.935797 4.19074,-5.935797 2.30491,0 3.09019,1.780739 1.74506,3.957198 -4.31336,6.979161 4.15131,4.229367 13.3439,-4.334838 8.4944,-7.913732 8.57357,-8.536634 1.73548,-13.653375 -6.65133,-4.976988 -6.52517,-5.200123 1.75979,-3.112515 4.90863,1.236854 11.5099,0.103362 14.6695,-2.518875 6.51412,-5.406242 18.30053,0.871553 28.21691,15.029178 7.03484,10.043639 27.58346,14.950751 35.40926,8.455908 6.76669,-5.615854 7.42512,-18.74993 1.69545,-33.820113 l -4.07827,-10.726663 -10.76122,9.479754 -10.76123,9.479749 8.9037,-10.148041 c 4.89703,-5.581423 8.90369,-13.0444734 8.90369,-16.5845515 0,-3.54008203 1.98507,-7.6633482 4.41127,-9.1628218 2.73364,-1.6894823 3.68723,-10.2614987 2.50743,-22.5398457 -1.34146,-13.960929 -0.77779,-17.80141 1.90829,-13.001649 2.09667,3.746537 3.14719,13.784371 2.33449,22.306304 -1.60978,16.8802098 0.28821,17.9887675 19.3951,11.3280704 7.12881,-2.4851164 14.9377,-9.7112144 19.35162,-17.9073674 6.73754,-12.510861 6.86449,-14.695148 1.41804,-24.398685 -7.33695,-13.071691 -28.86983,-20.414257 -39.81732,-13.577441 -11.53077,7.201089 -23.85317,5.674971 -26.18528,-3.243015 -2.04081,-7.80407 -16.92132,-13.87884 -42.70301,-17.432939 -6.52938,-0.900096 -2.9679,-1.228263 7.91439,-0.729256 10.8823,0.499011 22.90229,2.304031 26.71109,4.011163 5.96787,2.674832 6.9251,0.88312 6.9251,-12.962101 0,-27.542823 -9.39077,-39.948203 -34.31937,-45.336533 -11.12247,-2.40413 -34.38761,11.53745 -31.55808,18.9111 1.16472,3.03519 0.26181,6.13715 -2.00643,6.89324 -2.26826,0.75608 -4.95202,10.22001 -5.96391,21.030955 -1.71041,18.27378 -1.40759,19.119932 4.30552,12.030738 3.37993,-4.194037 7.16201,-6.608826 8.40464,-5.366203 2.63404,2.634042 -15.146,21.271734 -22.69266,23.78729 -2.82481,0.941603 -7.69673,-0.848712 -10.82649,-3.978476 -7.01707,-7.017071 -34.28587,-4.222133 -42.90566,4.397654 -9.04101,9.041003 -7.29846,26.511544 3.45322,34.621553 5.13657,3.874524 9.99411,6.3897 10.79454,5.589277 0.80042,-0.800422 5.50659,0.085 10.45815,1.967567 8.28303,3.149198 9.17472,2.141489 11.15243,-12.603396 1.18226,-8.814446 3.98806,-17.864757 6.2351,-20.1118 2.62331,-2.62331 2.49689,1.090738 -0.35326,10.377294 -3.08372,10.047698 -3.24324,19.687264 -0.52253,31.576777 2.89626,12.6567036 2.62855,19.0968303 -1.02791,24.72735 -2.71927,4.187365 -6.15748,14.272356 -7.64046,22.411095 -2.11661,11.616122 -1.332,15.321247 3.64929,17.232748 3.4901,1.339274 5.3604,4.029188 4.15622,5.97759 -1.20416,1.948398 2.36755,3.542543 7.93714,3.542543 6.36324,0 10.12654,-2.205909 10.12654,-5.935798 z m 0.19521,-31.422367 c -2.60208,-3.13532 -6.82679,-5.207911 -9.38824,-4.605764 -2.56144,0.602147 -3.31052,0.344197 -1.66462,-0.573204 1.64591,-0.917413 1.80395,-3.741852 0.35121,-6.276532 -1.45274,-2.534685 2.54282,-0.156666 8.87904,5.284482 6.33622,5.441148 12.26237,10.338181 13.16923,10.882296 0.90686,0.544115 -0.21064,0.9893 -2.48336,0.9893 -2.27271,0 -6.26117,-2.565262 -8.86325,-5.700578 z M 573.32769,-51.07293 c -1.19271,-1.929851 0.92812,-5.936514 4.71296,-8.903697 6.07892,-4.765658 6.30861,-4.660103 1.96936,0.905019 -2.70169,3.464943 -3.74045,7.471607 -2.30836,8.903697 1.43209,1.43209 1.52173,2.603801 0.19921,2.603801 -1.32253,0 -3.38045,-1.57897 -4.57317,-3.50882 z m 165.76251,-0.711655 c -1.43461,-2.321261 -1.7597,-5.069171 -0.7224,-6.106464 1.03729,-1.037296 2.94046,0.861918 4.22926,4.220475 2.67579,6.973007 0.39512,8.199545 -3.50686,1.885989 z"
         id="path3433"
         inkscape:connector-curvature="0" />
      <path
         style="fill:#21af4b"
         d="m 993.54906,808.34918 c 4.9224,-0.94652 12.04534,-0.91059 15.82884,0.0799 3.7834,0.99044 -0.2442,1.76491 -8.9499,1.72098 -8.70582,-0.0439 -11.80134,-0.85432 -6.87894,-1.80084 z m 81.07644,0.0708 c 3.8088,-0.99532 10.0414,-0.99532 13.8502,0 3.8088,0.99535 0.6925,1.80974 -6.9251,1.80974 -7.6176,0 -10.7339,-0.81439 -6.9251,-1.80974 z m -112.78017,-3.85016 c 2.72057,-1.09777 7.17242,-1.09777 9.893,0 2.72057,1.09777 0.49465,1.99597 -4.9465,1.99597 -5.44115,0 -7.66707,-0.8982 -4.9465,-1.99597 z m 146.41637,0 c 2.7205,-1.09777 7.1724,-1.09777 9.893,0 2.7205,1.09777 0.4946,1.99597 -4.9465,1.99597 -5.4412,0 -7.6671,-0.8982 -4.9465,-1.99597 z m -170.15956,-3.9572 c 2.72057,-1.09777 7.17242,-1.09777 9.893,0 2.72057,1.09777 0.49465,1.99597 -4.9465,1.99597 -5.44115,0 -7.66707,-0.8982 -4.9465,-1.99597 z m 72.21886,1.62985 c -1.0882,-1.06148 -15.33413,-3.02496 -31.65758,-4.36332 C 916.80467,792.80744 825.53713,761.14447 769.34071,725.25997 617.05324,628.01613 532.15323,469.12112 540.63892,297.23209 c 3.56639,-72.24202 17.00001,-124.20843 48.86491,-189.02839 14.42675,-29.347073 19.15972,-35.793975 25.1315,-34.232322 11.58279,3.028971 34.47233,-6.277244 47.51213,-19.31704 l 11.92407,-11.924076 13.7094,12.037007 c 19.46379,17.089442 39.08629,20.090249 52.06926,7.962789 8.4044,-7.850595 9.73411,-11.974399 8.13029,-25.214402 -1.05458,-8.705836 -3.05176,-18.57171 -4.43817,-21.924161 -1.87359,-4.530478 2.60454,-8.260739 17.4427,-14.5296774 15.80113,-6.6757898 21.22655,-11.4573756 26.02166,-22.9336706 8.28593,-19.831025 1.8538,-39.369043 -16.53196,-50.216903 -7.37792,-4.353081 -13.4144,-8.542017 -13.4144,-9.308748 0,-2.862055 51.92692,-30.295136 82.07073,-43.358106 63.73715,-27.6208 164.12456,-45.02688 228.67556,-39.64982 l 32.5011,2.70732 2.4154,24.42012 c 1.3286,13.43106 6.0613,72.500067 10.5172,131.2644634 9.0062,118.7752366 9.8135,124.6517466 17.1225,124.6517466 5.4304,0 10.6262,-11.73011 40.3143,-91.01556 10.1871,-27.20573911 23.5522,-61.930155 29.7002,-77.165369 6.148,-15.235214 15.3069,-38.83001 20.3531,-52.432881 5.0461,-13.60287 11.077,-24.73249 13.4018,-24.73249 2.3249,0 19.251,7.71579 37.6136,17.1462 65.1495,33.458621 108.9261,67.841515 152.1024,119.4638573 10.8823,13.0110667 20.748,24.5468497 21.9238,25.6350797 1.1758,1.08823 10.2241,14.443774 20.1072,29.678988 73.9565,114.006195 93.6019,259.776225 52.8942,392.479215 -5.462,17.80581 -18.8601,50.21032 -29.7734,72.01001 -79.9552,159.71312 -241.0756,262.35893 -426.7989,271.90294 -27.4458,1.41039 -50.7919,1.6959 -51.8801,0.63442 z m 121.9312,-1.71228 c 2.8566,-1.14311 6.2697,-1.00255 7.5846,0.31223 1.315,1.31493 -1.0223,2.25022 -5.1938,2.0784 -4.6099,-0.18995 -5.5476,-1.12757 -2.3908,-2.39079 z m -209.73153,-3.9572 c 2.8566,-1.14311 6.26967,-1.00255 7.58464,0.31223 1.31494,1.31493 -1.0223,2.25022 -5.19383,2.0784 -4.60991,-0.18995 -5.5476,-1.12757 -2.39081,-2.39078 z m -94.23079,-28.95426 c -3.26469,-2.10982 -4.15506,-3.83599 -1.9786,-3.83599 2.17646,0 6.62831,1.72617 9.893,3.83599 3.26469,2.10982 4.15506,3.83599 1.9786,3.83599 -2.17646,0 -6.62831,-1.72617 -9.893,-3.83599 z m -41.78354,-21.98291 c -7.37632,-5.90964 -7.32777,-5.98269 1.22226,-1.83935 4.89703,2.37309 8.9037,5.14242 8.9037,6.15408 0,3.02813 -2.05224,2.15366 -10.12596,-4.31473 z m -22.52093,-11.93808 c -14.79375,-8.02575 -13.89326,-11.36848 0.9893,-3.6724 6.52938,3.37648 11.87159,6.98367 11.87159,8.01602 0,2.54646 -0.42519,2.40285 -12.86089,-4.34362 z M 705.11197,689.4641 c -4.92224,-6.27636 -4.78228,-6.41632 1.49406,-1.49408 3.8088,2.98709 6.9251,6.10338 6.9251,6.9251 0,3.25693 -3.2496,1.16068 -8.41916,-5.43102 z m 667.29273,-0.9893 c 3.9393,-4.35292 8.0528,-7.9144 9.141,-7.9144 1.0882,0 -1.2445,3.56148 -5.1838,7.9144 -3.9394,4.35292 -8.0529,7.9144 -9.1411,7.9144 -1.0882,0 1.2445,-3.56148 5.1839,-7.9144 z m -700.6731,-28.68969 -11.62265,-12.8609 12.86089,11.62265 c 11.98816,10.83394 14.67983,14.09914 11.62266,14.09914 -0.68104,0 -6.46844,-5.7874 -12.8609,-12.86089 z m -29.9348,-33.63619 c -4.92225,-6.27635 -4.78228,-6.41632 1.49406,-1.49408 3.8088,2.98709 6.92509,6.10339 6.92509,6.9251 0,3.25693 -3.24959,1.16069 -8.41915,-5.43102 z m 787.9872,5.43102 c 0,-0.82171 3.1163,-3.93801 6.9251,-6.9251 6.2764,-4.92224 6.4164,-4.78227 1.4941,1.49408 -5.1695,6.59171 -8.4192,8.68795 -8.4192,5.43102 z M 572.88787,518.05199 c -1.43462,-2.32125 -1.7597,-5.06917 -0.72241,-6.10647 1.03729,-1.0373 2.94046,0.86192 4.22926,4.22047 2.6758,6.97302 0.39513,8.19956 -3.50685,1.886 z m 936.16133,-13.58692 c 0,-2.17646 1.7262,-6.62831 3.836,-9.89299 2.1098,-3.26469 3.836,-4.15506 3.836,-1.9786 0,2.17646 -1.7262,6.6283 -3.836,9.89299 -2.1098,3.26469 -3.836,4.15506 -3.836,1.9786 z M 543.68401,432.90575 c 0.18988,-4.60994 1.12756,-5.5476 2.3908,-2.39082 1.14312,2.85658 1.00254,6.26966 -0.31241,7.58464 -1.31494,1.31494 -2.25022,-1.0223 -2.07839,-5.19382 z m 997.52639,-45.17803 c 0,-5.44115 0.8982,-7.66707 1.996,-4.9465 1.0977,2.72057 1.0977,7.17242 0,9.893 -1.0978,2.72057 -1.996,0.49465 -1.996,-4.9465 z M 532.41808,356.07013 c 0,-7.61761 0.81437,-10.7339 1.80972,-6.9251 0.99534,3.80881 0.99534,10.04139 0,13.8502 -0.99535,3.8088 -1.80972,0.69251 -1.80972,-6.9251 z m 1013.04282,0 c 0,-7.61761 0.8144,-10.7339 1.8097,-6.9251 0.9953,3.80881 0.9953,10.04139 0,13.8502 -0.9953,3.8088 -1.8097,0.69251 -1.8097,-6.9251 z m 0,-75.18677 c 0,-7.61761 0.8144,-10.7339 1.8097,-6.9251 0.9953,3.80881 0.9953,10.04139 0,13.8502 -0.9953,3.8088 -1.8097,0.69251 -1.8097,-6.9251 z m -1013.18945,-1.9786 c 0.0806,-6.52938 0.96753,-8.72143 1.97085,-4.87119 1.00332,3.85023 0.93734,9.19245 -0.14663,11.87159 -1.08397,2.67915 -1.90487,-0.47102 -1.82422,-7.0004 z M 1540.898,246.91742 c 0.19,-4.60994 1.1276,-5.5476 2.3908,-2.39082 1.1431,2.85658 1.0026,6.26967 -0.3122,7.58464 -1.315,1.31494 -2.2502,-1.0223 -2.0784,-5.19382 z M 536.08202,241.31138 c 0,-5.44115 0.89818,-7.66708 1.99595,-4.9465 1.09778,2.72057 1.09778,7.17242 0,9.89299 -1.09777,2.72058 -1.99595,0.49465 -1.99595,-4.94649 z m 1001.17118,-15.8288 c 0,-5.44115 0.8982,-7.66707 1.996,-4.9465 1.0977,2.72058 1.0977,7.17243 0,9.893 -1.0978,2.72057 -1.996,0.49465 -1.996,-4.9465 z m -4.2696,-18.13716 c 0.19,-4.60991 1.1276,-5.54759 2.3908,-2.39081 1.1431,2.85661 1.0026,6.26969 -0.3122,7.58464 -1.315,1.31494 -2.2502,-1.02228 -2.0784,-5.19383 z M 555.36438,164.14601 c 0,-2.17646 1.72621,-6.62831 3.83601,-9.893 2.1098,-3.26469 3.83601,-4.15506 3.83601,-1.9786 0,2.17646 -1.72621,6.62831 -3.83601,9.893 -2.1098,3.26469 -3.83601,4.15506 -3.83601,1.9786 z m 19.6648,-48.04911 c 0,-2.12322 2.76935,-7.31704 6.1541,-11.54183 5.80275,-7.242885 5.88511,-7.116618 1.44258,2.21156 -5.76885,12.11311 -7.59668,14.35806 -7.59668,9.33027 z M 1125.9978,71.151843 c 0,-7.617607 0.8144,-10.733901 1.8098,-6.925097 0.9953,3.808803 0.9953,10.041391 0,13.850194 -0.9954,3.808804 -1.8098,0.69251 -1.8098,-6.925097 z m -4.1038,-45.507782 c 0.081,-6.529378 0.9676,-8.721412 1.9709,-4.871185 1.0033,3.850224 0.9373,9.192442 -0.1468,11.871596 -1.0838,2.67915 -1.9047,-0.471034 -1.8241,-7.000411 z M 1433.2365,8.8259676 c -4.9223,-6.2763384 -4.7823,-6.4163045 1.494,-1.4940601 6.5917,5.1695615 8.688,8.4191575 5.4311,8.4191575 -0.8218,0 -3.938,-3.116294 -6.9251,-6.9250974 z M 1118.0834,-35.692515 c 0,-7.617607 0.8144,-10.733901 1.8098,-6.925097 0.9953,3.808803 0.9953,10.041391 0,13.850194 -0.9954,3.808804 -1.8098,0.69251 -1.8098,-6.925097 z m 251.8379,-18.796692 c -4.9223,-6.276339 -4.7823,-6.416305 1.4941,-1.49406 6.5917,5.169561 8.6879,8.419157 5.431,8.419157 -0.8217,0 -3.938,-3.116294 -6.9251,-6.925097 z m -255.7951,-24.732491 c 0,-7.617607 0.8144,-10.7339 1.8098,-6.925097 0.9953,3.808804 0.9953,10.041391 0,13.850195 -0.9954,3.808803 -1.8098,0.692509 -1.8098,-6.925098 z m -3.6894,-51.443582 c 0,-11.97052 0.7418,-16.86756 1.6485,-10.88229 0.9067,5.98526 0.9067,15.77933 0,21.76459 -0.9067,5.98526 -1.6485,1.08823 -1.6485,-10.8823 z m -187.91613,-30.4036 c 2.8566,-1.14312 6.26967,-1.00254 7.58464,0.31241 1.31494,1.31494 -1.0223,2.25022 -5.19383,2.07839 -4.60991,-0.18988 -5.5476,-1.12756 -2.39081,-2.3908 z m 39.32466,-7.83196 c 2.72057,-1.09777 7.17242,-1.09777 9.893,0 2.72057,1.09778 0.49465,1.99596 -4.9465,1.99596 -5.44115,0 -7.66707,-0.89818 -4.9465,-1.99596 z m 31.70373,-4.13519 c 4.9224,-0.94654 12.04534,-0.9106 15.82884,0.0799 3.7834,0.99045 -0.2442,1.76489 -8.9499,1.72097 -8.70582,-0.0439 -11.80134,-0.8543 -6.87894,-1.80083 z m 79.14394,0 c 4.9224,-0.94654 12.0454,-0.9106 15.8288,0.0799 3.7835,0.99045 -0.2441,1.76489 -8.9498,1.72097 -8.7059,-0.0439 -11.8014,-0.8543 -6.879,-1.80083 z"
         id="path3431"
         inkscape:connector-curvature="0" />
      <path
         style="fill:#178838"
         d="M 1000.428,808.67351 C 918.82248,800.0004 842.57392,776.0121 779.59605,739.19833 662.08031,670.50441 580.26552,562.45912 546.41719,431.26038 535.8735,390.39226 534.65026,379.28963 534.4272,322.43394 c -0.26784,-68.27069 4.64532,-100.74121 23.65142,-156.30933 10.49625,-30.6879 33.10247,-79.890024 41.175,-89.616838 9.92121,-11.954324 6.60694,-1.281095 -10.10076,32.528328 -60.45708,122.33998 -65.895,259.75528 -15.25133,385.39854 57.06244,141.56779 185.96245,252.94286 336.76078,290.97561 54.00276,13.62001 74.06453,15.8288 139.23069,15.32904 62.6456,-0.48044 102.1348,-7.62441 165.7985,-29.99457 167.2126,-58.75526 291.1259,-206.9335 318.6415,-381.0384 17.5793,-111.23313 -7.6288,-230.72677 -68.4538,-324.490275 -9.8831,-15.235214 -18.9314,-28.590758 -20.1072,-29.678988 -1.1758,-1.08823 -11.0415,-12.624013 -21.9238,-25.6350797 -43.1763,-51.6223423 -86.9529,-86.0052363 -152.1024,-119.4638573 -18.3626,-9.43041 -35.2887,-17.1462 -37.6136,-17.1462 -2.3248,0 -8.3557,11.12962 -13.4018,24.73249 -5.0462,13.602871 -14.2051,37.197667 -20.3531,52.432881 -6.148,15.235214 -19.5131,49.95962989 -29.7002,77.165369 -29.6881,79.28545 -34.8839,91.01556 -40.3143,91.01556 -7.309,0 -8.1163,-5.87651 -17.1225,-124.6517466 -4.4559,-58.7643964 -9.1886,-117.8334034 -10.5172,-131.2644634 l -2.4154,-24.42012 -32.5011,-2.70732 c -88.40959,-7.36448 -205.5603,20.89126 -289.15644,69.742036 -14.75352,8.621461 -28.41479,15.145318 -30.35837,14.497457 -1.94358,-0.64786 10.76808,-9.823776 28.24813,-20.390923 60.16218,-36.36961 137.21041,-61.0698 217.48606,-69.72187 45.14122,-4.8653 111.17432,-1.64098 113.13382,5.5242 1.1436,4.18194 6.1622,66.736714 14.1638,176.548396 5.2573,72.149114 8.216,96.116314 11.4027,92.365864 1.5557,-1.8309 23.0932,-56.305893 47.8612,-121.055552 27.0046,-70.596583 47.0856,-117.726658 50.1607,-117.726658 9.385,0 76.1839,35.020973 107.1546,56.178491 62.3069,42.564683 124.1213,114.830035 160.4492,187.576529 52.1976,104.52514 62.5852,246.57432 25.941,354.73809 -51.3432,151.55128 -164.6501,264.94527 -317.733,317.97727 -55.826,19.33958 -155.0594,32.25362 -206.132,26.82561 z"
         id="path3429"
         inkscape:connector-curvature="0" />
    </g>
  </g>
</svg>
