<?xml version="1.0" encoding="UTF-8" standalone="no"?>
<!-- Created with Inkscape (http://www.inkscape.org/) -->

<svg
   xmlns:dc="http://purl.org/dc/elements/1.1/"
   xmlns:cc="http://creativecommons.org/ns#"
   xmlns:rdf="http://www.w3.org/1999/02/22-rdf-syntax-ns#"
   xmlns:svg="http://www.w3.org/2000/svg"
   xmlns="http://www.w3.org/2000/svg"
   xmlns:sodipodi="http://sodipodi.sourceforge.net/DTD/sodipodi-0.dtd"
   xmlns:inkscape="http://www.inkscape.org/namespaces/inkscape"
   width="72.493256mm"
   height="70.224503mm"
   viewBox="0 0 256.86586 248.82698"
   id="svg2"
   version="1.1"
   inkscape:version="0.91 r13725"
   sodipodi:docname="lily-o.svg">
  <defs
     id="defs4" />
  <sodipodi:namedview
     id="base"
     pagecolor="#ffffff"
     bordercolor="#666666"
     borderopacity="1.0"
     inkscape:pageopacity="0.0"
     inkscape:pageshadow="2"
     inkscape:zoom="0.49497475"
     inkscape:cx="643.74479"
     inkscape:cy="-15.443383"
     inkscape:document-units="px"
     inkscape:current-layer="layer1"
     showgrid="false"
     fit-margin-top="0"
     fit-margin-left="0"
     fit-margin-right="0"
     fit-margin-bottom="0"
     inkscape:window-width="1920"
     inkscape:window-height="1011"
     inkscape:window-x="-9"
     inkscape:window-y="-9"
     inkscape:window-maximized="1" />
  <metadata
     id="metadata7">
    <rdf:RDF>
      <cc:Work
         rdf:about="">
        <dc:format>image/svg+xml</dc:format>
        <dc:type
           rdf:resource="http://purl.org/dc/dcmitype/StillImage" />
        <dc:title></dc:title>
      </cc:Work>
    </rdf:RDF>
  </metadata>
  <g
     inkscape:label="Layer 1"
     inkscape:groupmode="layer"
     id="layer1"
     transform="translate(409.23427,-488.01675)">
    <path
       style="fill:#ff9955"
       d=""
       id="path3443"
       inkscape:connector-curvature="0"
       transform="translate(-1084.8769,371.99117)" />
    <path
       style="fill:#ffccaa"
       d=""
       id="path3445"
       inkscape:connector-curvature="0"
       transform="translate(-1084.8769,371.99117)" />
    <g
       id="g3460"
       transform="translate(-767.71593,-438.4062)">
      <path
         style="fill:#fcacc8"
         d="m 376.90709,984.33576 c -0.73526,-2.31659 0.15687,-8.76294 1.51737,-10.96428 0.74087,-1.19875 1.49247,-0.86543 4.12876,1.83103 1.77266,1.81311 4.51055,3.55408 6.0842,3.86881 3.49795,0.69959 3.16711,2.10315 -1.19193,5.05661 -4.30518,2.91698 -9.64513,3.02228 -10.5384,0.20783 z m 23.53475,-1.5933 -3.13208,-2.63547 3.97467,-1.77952 c 2.18607,-0.97873 4.53905,-2.83027 5.22883,-4.11453 1.24425,-2.31656 1.26839,-2.30341 3.05446,1.66499 2.22645,4.94682 2.26197,5.94793 0.28132,7.92857 -2.31789,2.31789 -5.86479,1.9167 -9.4072,-1.06404 z m 9.61939,-16.53821 c 0.3381,-2.08347 -0.0786,-4.93852 -1.06563,-7.30075 -1.8992,-4.54544 -1.13335,-5.48609 4.48631,-5.51026 10.54876,-0.0454 10.30823,13.95865 -0.26868,15.64235 l -3.70723,0.59014 0.55523,-3.42148 z m -37.14076,-0.54215 c -2.77975,-0.67246 -6.5,-4.29176 -6.5,-6.32362 0,-0.92996 0.93266,-2.87652 2.07258,-4.32569 2.24074,-2.84864 7.28731,-3.58299 10.99316,-1.59968 1.73768,0.92998 1.78933,1.26028 0.50824,3.25 -0.78432,1.21815 -1.7344,3.90232 -2.11129,5.96482 -0.67928,3.71723 -1.09314,3.97027 -4.96269,3.03417 z m 11.73822,-19.41154 c 0.87736,-9.13092 6.65055,-13.7267 13.27505,-10.56769 4.00713,1.91087 5.48673,4.91041 5.48673,11.12308 l 0,4.29782 -4.61146,-1.51815 c -4.15875,-1.36912 -5.10335,-1.36085 -9.62215,0.0842 l -5.01069,1.60235 0.48252,-5.02161 z"
         id="path3480"
         inkscape:connector-curvature="0" />
      <path
         style="fill:#fa8fb2"
         d="m 379.6895,986.68494 c 0.97297,-0.25354 2.32297,-0.23687 3,0.0371 0.67703,0.27393 -0.11903,0.48137 -1.76903,0.46099 -1.65,-0.0204 -2.20394,-0.2445 -1.23097,-0.49804 z m 4.73097,-0.70002 c 0,-0.21616 0.69837,-0.661 1.55194,-0.98855 0.88992,-0.34149 1.29132,-0.17385 0.94098,0.39301 -0.58726,0.95021 -2.49292,1.40545 -2.49292,0.59554 z m 22,0 c 0,-0.21616 0.69837,-0.661 1.55194,-0.98855 0.88992,-0.34149 1.29132,-0.17385 0.94098,0.39301 -0.58726,0.95021 -2.49292,1.40545 -2.49292,0.59554 z m -7.59501,-3.85699 -1.90499,-2.25 2.25,1.90499 c 1.2375,1.04774 2.25,2.06024 2.25,2.25 0,0.80025 -0.80479,0.20946 -2.59501,-1.90499 z m 18.59501,-14.12756 c 0,-0.20765 0.7875,-0.99515 1.75,-1.75 1.58606,-1.24387 1.62143,-1.2085 0.37756,0.37756 -1.30637,1.66575 -2.12756,2.19548 -2.12756,1.37244 z m -49.59501,-4.87244 -1.90499,-2.25 2.25,1.90499 c 2.11444,1.79022 2.70524,2.59501 1.90499,2.59501 -0.18976,0 -1.20226,-1.0125 -2.25,-2.25 z m -2.40499,-9.12756 c 0,-0.20765 0.7875,-0.99515 1.75,-1.75 1.58606,-1.24387 1.62143,-1.2085 0.37756,0.37756 -1.30637,1.66575 -2.12756,2.19548 -2.12756,1.37244 z m 47.8125,-1.30555 c 0.72188,-0.28888 1.58438,-0.25335 1.91667,0.0789 0.33229,0.33229 -0.25834,0.56864 -1.3125,0.52522 -1.16495,-0.048 -1.4019,-0.28495 -0.60417,-0.60417 z m -39.54347,-1.00988 c 0.97297,-0.25354 2.32297,-0.23687 3,0.0371 0.67703,0.27393 -0.11903,0.48137 -1.76903,0.46099 -1.65,-0.0204 -2.20394,-0.2445 -1.23097,-0.49804 z m 30.00333,-5.30701 c 0,-2.475 0.19502,-3.4875 0.43337,-2.25 0.23836,1.2375 0.23836,3.2625 0,4.5 -0.23835,1.2375 -0.43337,0.225 -0.43337,-2.25 z m -18.27236,-6.67835 c 0,-0.55642 1.0125,-1.86892 2.25,-2.91666 l 2.25,-1.90499 -1.98934,2.5 c -1.09414,1.375 -2.10664,2.6875 -2.25,2.91667 -0.14336,0.22916 -0.26066,-0.0386 -0.26066,-0.59502 z"
         id="path3478"
         inkscape:connector-curvature="0" />
      <path
         style="fill:#f0af85"
         d="m 403.42047,977.00037 c 0,-0.20765 0.7875,-0.99515 1.75,-1.75 1.58606,-1.24387 1.62143,-1.2085 0.37756,0.37756 -1.30637,1.66575 -2.12756,2.19548 -2.12756,1.37244 z m 6.232,-12.62244 c 0,-1.925 0.2058,-2.7125 0.45733,-1.75 0.25152,0.9625 0.25152,2.5375 0,3.5 -0.25153,0.9625 -0.45733,0.175 -0.45733,-1.75 z m -32.0741,0 c 0,-1.375 0.22697,-1.9375 0.50438,-1.25 0.27741,0.6875 0.27741,1.8125 0,2.5 -0.27741,0.6875 -0.50438,0.125 -0.50438,-1.25 z m 15.11113,-15.69299 c 0.97297,-0.25354 2.32297,-0.23687 3,0.0371 0.67703,0.27393 -0.11903,0.48137 -1.76903,0.46099 -1.65,-0.0204 -2.20394,-0.2445 -1.23097,-0.49804 z"
         id="path3476"
         inkscape:connector-curvature="0" />
      <path
         style="fill:#e7ab7c"
         d="m 471.42047,1174.7097 c -25.54414,-4.0446 -45.76182,-12.2245 -63.47706,-25.6825 -22.3219,-16.9575 -39.7091,-42.666 -45.86347,-67.8131 -7.35071,-30.0355 -3.3149,-62.6126 10.96808,-88.5343 1.45522,-2.64103 2.7708,-4.95083 2.92351,-5.13289 0.1527,-0.18206 1.23822,0.18306 2.41226,0.81139 2.98854,1.59942 8.12153,-0.25158 12.71731,-4.58596 l 3.64671,-3.43928 2.92738,2.9942 c 3.09188,3.16245 8.13758,4.69571 11.71563,3.56008 3.37865,-1.07234 4.36897,-5.06532 2.56753,-10.35227 -1.89572,-5.56362 -1.93606,-5.15714 0.51178,-5.15714 1.12731,0 3.35,-0.67243 4.9393,-1.49429 9.41334,-4.86783 7.39466,-16.97557 -3.07591,-18.44889 l -4.41305,-0.62096 4,-2.55902 c 14.45748,-9.24923 29.89507,-15.55974 47.5,-19.41683 8.42147,-1.84508 31.44514,-3.07022 38.32085,-2.03915 4.50158,0.67506 4.50511,0.67882 5.0504,5.37733 0.30012,2.586 1.07785,12.35181 1.72828,21.70181 2.05816,29.58585 3.50486,43.16242 4.36891,41 2.48555,-6.22045 21.23212,-55.63253 21.93607,-57.81895 0.7363,-2.28689 2.19361,-1.86546 14.09549,4.07619 23.52215,11.74269 44.05182,32.32494 55.94505,56.08833 16.89271,33.7527 16.62381,74.5877 -0.71466,108.5297 -21.86923,42.8114 -67.36055,70.0364 -116.11138,69.4886 -6.66546,-0.075 -13.24401,-0.3144 -14.61901,-0.5321 z"
         id="path3474"
         inkscape:connector-curvature="0" />
      <path
         style="fill:#f38983"
         d="m 377.42047,987.77982 -2.5,-1.52723 2.5,0.6506 c 1.375,0.35783 3.61386,0.60769 4.97526,0.55523 2.76488,-0.10653 9.66341,-5.3102 9.27474,-6.99609 -0.44508,-1.93057 5.56235,-1.25101 6.18133,0.69923 0.7399,2.33123 5.69004,5.21637 8.94991,5.21637 1.64615,0 3.16732,-0.90757 4.22389,-2.5201 1.52922,-2.3339 1.53093,-2.83512 0.0231,-6.78343 -2.12524,-5.56486 -2.05401,-6.69647 0.42148,-6.69647 2.89102,0 7.54787,-2.58731 9.38964,-5.2168 3.66854,-5.23757 -0.0752,-11.61407 -7.52625,-12.81914 l -4.41305,-0.71373 4.32692,-0.12516 c 3.54203,-0.10247 4.85717,0.40507 7.25,2.79791 4.95764,4.95764 3.53034,12.16018 -3.08796,15.58263 -1.5893,0.82186 -3.81199,1.49429 -4.9393,1.49429 -2.44784,0 -2.4075,-0.40648 -0.51178,5.15714 1.80144,5.28695 0.81112,9.27993 -2.56753,10.35227 -3.62816,1.15153 -8.6395,-0.41374 -11.85533,-3.70297 l -3.06709,-3.13709 -2.02786,2.578 c -1.88771,2.39984 -9.47253,6.79737 -11.58579,6.71721 -0.51386,-0.0195 -2.05928,-0.72269 -3.43428,-1.56267 z"
         id="path3472"
         inkscape:connector-curvature="0" />
      <path
         style="fill:#fa6996"
         d="m 408.42047,986.00037 c 0,-0.20765 0.7875,-0.99515 1.75,-1.75 1.58606,-1.24387 1.62143,-1.2085 0.37756,0.37756 -1.30637,1.66575 -2.12756,2.19548 -2.12756,1.37244 z m -32.43571,-11.32931 c -0.54268,-1.4252 -0.42782,-1.54006 0.5598,-0.5598 0.68342,0.67834 0.99067,1.48524 0.68278,1.79313 -0.30788,0.30789 -0.86705,-0.24711 -1.24258,-1.23333 z m 33.24821,-4.97624 c 0.72188,-0.28888 1.58438,-0.25335 1.91667,0.0789 0.33229,0.33229 -0.25834,0.56864 -1.3125,0.52522 -1.16495,-0.048 -1.4019,-0.28495 -0.60417,-0.60417 z m -33,-3 c 0.72188,-0.28888 1.58438,-0.25335 1.91667,0.0789 0.33229,0.33229 -0.25834,0.56864 -1.3125,0.52522 -1.16495,-0.048 -1.4019,-0.28495 -0.60417,-0.60417 z m -10.25971,-2.23148 c -0.32198,-0.52097 -0.15917,-1.21065 0.3618,-1.53262 0.52097,-0.32198 1.21065,-0.15917 1.53262,0.3618 0.32198,0.52097 0.15917,1.21065 -0.3618,1.53262 -0.52097,0.32198 -1.21065,0.15917 -1.53262,-0.3618 z m -0.47384,-4.75362 c -0.0434,-0.64252 -0.33793,-1.99252 -0.65446,-3 -0.54705,-1.74122 -0.51883,-1.7434 0.57078,-0.0441 0.63045,0.98322 0.92496,2.33322 0.65445,3 -0.35498,0.87499 -0.51379,0.88727 -0.57077,0.0441 z m 13.0872,-7.20794 c -1.09769,-0.69582 -1.08293,-0.94181 0.0833,-1.38935 0.8084,-0.31021 1.41718,0.0596 1.41718,0.86084 0,0.77256 -0.0375,1.39777 -0.0833,1.38935 -0.0458,-0.008 -0.68356,-0.3958 -1.41718,-0.86084 z m 30.39149,-0.0306 c -0.30822,-0.49871 0.34022,-0.67122 1.44098,-0.38337 2.33499,0.61061 2.63015,1.29011 0.5604,1.29011 -0.79254,0 -1.69316,-0.40803 -2.00138,-0.90674 z m -25.30546,-4.59326 c 0.0111,-2.2 0.21589,-2.98225 0.45508,-1.73834 0.23919,1.24391 0.23011,3.04391 -0.0202,4 -0.25029,0.95609 -0.446,-0.0617 -0.4349,-2.26166 z m -9.98315,1.80701 c 0.97297,-0.25354 2.32297,-0.23687 3,0.0371 0.67703,0.27393 -0.11903,0.48137 -1.76903,0.46099 -1.65,-0.0204 -2.20394,-0.2445 -1.23097,-0.49804 z m 32.00333,-3.30701 c 0,-2.475 0.19502,-3.4875 0.43337,-2.25 0.23836,1.2375 0.23836,3.2625 0,4.5 -0.23835,1.2375 -0.43337,0.225 -0.43337,-2.25 z m -3.71957,-7.91459 c -0.32198,-0.52097 -0.15917,-1.21065 0.3618,-1.53262 0.52097,-0.32198 1.21065,-0.15917 1.53262,0.3618 0.32198,0.52097 0.15917,1.21065 -0.3618,1.53262 -0.52097,0.32198 -1.21065,0.15917 -1.53262,-0.3618 z m -15.9397,-3.26839 c 0.28881,-0.4673 0.94401,-0.59075 1.45601,-0.27431 1.30838,0.80862 1.16106,1.12396 -0.52511,1.12396 -0.80081,0 -1.21971,-0.38234 -0.9309,-0.84965 z m 12.50532,0.25616 c -1.00461,-0.62088 -0.94645,-0.92519 0.26572,-1.39034 0.8535,-0.32752 1.79857,-0.19624 2.10016,0.29174 0.78841,1.27567 -0.84908,2.03604 -2.36588,1.0986 z m -7.50658,-1.89224 c -0.27841,-0.45048 0.82003,-0.6244 2.44098,-0.3865 1.62096,0.23791 2.94719,0.60648 2.94719,0.81906 0,0.76198 -4.89265,0.3692 -5.38817,-0.43256 z"
         id="path3470"
         inkscape:connector-curvature="0" />
      <path
         style="fill:#fcf001"
         d="m 387.10864,975.4697 c -6.94378,-4.79147 -8.61259,-11.24192 -4.59163,-17.74798 3.70967,-6.00237 10.32565,-7.86553 17.41368,-4.90397 9.47971,3.96088 9.79475,18.24839 0.50826,23.05062 -3.66767,1.89663 -10.29103,1.69854 -13.33031,-0.39867 z"
         id="path3468"
         inkscape:connector-curvature="0" />
      <path
         style="fill:#fcb22c"
         d="m 395.97811,978.47119 c -0.30822,-0.49871 0.34022,-0.67122 1.44098,-0.38337 2.33499,0.61061 2.63015,1.29011 0.5604,1.29011 -0.79254,0 -1.69316,-0.40803 -2.00138,-0.90674 z m -13.63333,-3.84326 -2.42431,-2.75 2.75,2.42431 c 1.5125,1.33338 2.75,2.57088 2.75,2.75 0,0.78428 -0.8098,0.14598 -3.07569,-2.42431 z m 22.07569,0.25 c 1.29175,-1.375 2.57363,-2.5 2.84863,-2.5 0.275,0 -0.55688,1.125 -1.84863,2.5 -1.29174,1.375 -2.57363,2.5 -2.84863,2.5 -0.275,0 0.55689,-1.125 1.84863,-2.5 z m -25.1755,-5.82582 c -0.37205,-1.82482 -0.23268,-2.48236 0.39346,-1.85622 0.53328,0.53328 0.79255,1.8049 0.57615,2.82582 -0.29142,1.37482 -0.54288,1.12336 -0.96961,-0.9696 z m 1.90883,-13.79827 c 0.67834,-0.68342 1.48524,-0.99067 1.79313,-0.68278 0.30789,0.30789 -0.24711,0.86705 -1.23333,1.24258 -1.4252,0.54268 -1.54006,0.42782 -0.5598,-0.5598 z"
         id="path3466"
         inkscape:connector-curvature="0" />
      <path
         style="fill:#fc5089"
         d="m 374.78319,983.68698 c -0.58165,-2.31748 -0.10679,-5.05284 2.3318,-13.43211 0.35462,-1.21851 -0.45831,-1.79765 -3.26155,-2.32354 -2.11064,-0.39595 -5.02355,-1.99013 -6.70042,-3.667 -2.4695,-2.4695 -2.86333,-3.50434 -2.35061,-6.17646 1.21838,-6.34973 9.61447,-9.92296 15.6838,-6.67476 1.75427,0.93886 1.93426,0.68235 1.93426,-2.7566 0,-12.10394 8.07566,-19.38532 16.48013,-14.85922 4.53288,2.44112 6.51987,6.3984 6.51987,12.98493 0,3.07764 0.45,5.59571 1,5.59571 0.55,0 1,0.483 1,1.07332 0,0.59033 -0.70922,0.92783 -1.57604,0.75 -1.23767,-0.2539 -1.61339,-1.86292 -1.75,-7.49446 -0.14636,-6.03338 -0.55087,-7.57207 -2.54954,-9.69813 -4.75277,-5.05567 -12.11661,-4.2997 -15.6027,1.60178 -1.55968,2.64033 -2.10701,5.97206 -2.48594,15.1325 -0.0197,0.47576 -1.14495,0.13826 -2.5006,-0.75 -4.05508,-2.65699 -9.21988,-2.08416 -12.71419,1.41016 -2.43309,2.43309 -2.89662,3.55846 -2.36835,5.75 0.81173,3.36744 2.81199,4.95105 8.01646,6.34662 5.65956,1.51759 5.69336,1.56657 3.92075,5.68171 -0.87576,2.03307 -1.64476,6.059 -1.70888,8.9465 -0.0641,2.8875 -0.235,5.25 -0.37972,5.25 -0.14473,0 -0.56707,-1.21093 -0.93853,-2.69095 z m 33.13728,-12.30905 c -0.33992,-0.55 -0.14148,-1 0.44098,-1 0.58246,0 1.05902,0.45 1.05902,1 0,0.55 -0.19844,1 -0.44098,1 -0.24254,0 -0.7191,-0.45 -1.05902,-1 z"
         id="path3464"
         inkscape:connector-curvature="0" />
      <path
         style="fill:#fbcd0b"
         d="m 388.42047,978.2572 c -3.70306,-1.47227 -8.00432,-5.96068 -7.96959,-8.31636 0.0302,-2.04748 0.0389,-2.04795 1.17019,-0.0629 1.20289,2.11074 5.77825,6.40985 7.0494,6.62378 0.4125,0.0694 1.275,0.18247 1.91667,0.25122 1.31537,0.14093 2.46275,2.6602 1.16666,2.56161 -0.45833,-0.0349 -1.95833,-0.51066 -3.33333,-1.05734 z m 11.18761,-1.91535 c 2.02819,-1.07123 4.3437,-2.88439 5.14559,-4.02925 0.80189,-1.14485 1.72851,-1.64384 2.05915,-1.10886 0.88821,1.43716 -6.10244,7.18136 -8.67715,7.12999 -1.81098,-0.0361 -1.54231,-0.39959 1.47241,-1.99188 z m 7.62864,-10.83436 c 0.22251,-2.33322 -0.29646,-5.1575 -1.30667,-7.11103 -1.25507,-2.42704 -1.3411,-3.13162 -0.34268,-2.80652 1.96505,0.63984 4.25537,7.96938 3.46914,11.102 -1.01178,4.03122 -2.24089,3.23123 -1.81979,-1.18445 z m -28.17937,1.05555 c -2.75034,-4.3304 3.9398,-14.07917 11.14291,-16.23728 4.38791,-1.31465 11.64985,0.12346 12.55669,2.48664 0.46567,1.21351 0.0616,1.21197 -2.86506,-0.0109 -9.43539,-3.94235 -18.02125,0.94981 -19.4393,11.07639 -0.37311,2.66445 -0.83896,3.56097 -1.39524,2.68511 z"
         id="path3462"
         inkscape:connector-curvature="0" />
    </g>
  </g>
</svg>
